<svg xmlns="http://www.w3.org/2000/svg" xmlns:xlink="http://www.w3.org/1999/xlink" width="18" height="18" viewBox="0 0 18 18"><defs><style>.a,.c{fill:#fff;}.a{stroke:#707070;}.b{clip-path:url(#a);}</style><clipPath id="a"><rect class="a" width="18" height="18" transform="translate(25 273)"/></clipPath></defs><g class="b" transform="translate(-25 -273)"><g transform="translate(23.286 271.577)"><path class="c" d="M12.857,18.857H2.571A.857.857,0,0,1,1.714,18V5.734A2.571,2.571,0,0,1,3.866,3.163l6.857-1.14a2.571,2.571,0,0,1,2.991,2.571V18a.857.857,0,0,1-.857.857ZM3.429,17.143H12V4.594a.862.862,0,0,0-1-.849L4.14,4.894a.857.857,0,0,0-.72.857Z"/><path class="c" d="M18.857,18.857h-6A.857.857,0,0,1,12,18V6a.857.857,0,0,1,1.089-.857l4.749,1.363a2.571,2.571,0,0,1,1.877,2.469V18a.857.857,0,0,1-.857.857Zm-5.143-1.714H18V8.974a.857.857,0,0,0-.617-.857L13.714,7.106ZM9.428,10.286H6A.857.857,0,1,1,6,8.571H9.428a.857.857,0,1,1,0,1.714Zm0,3.429H6A.857.857,0,1,1,6,12H9.428a.857.857,0,1,1,0,1.714Z"/><path class="c" d="M15.531,13.714a.857.857,0,0,1-.609-.249,1.02,1.02,0,0,1-.189-.283.917.917,0,0,1,0-.651,1.089,1.089,0,0,1,.189-.283.9.9,0,0,1,.771-.231.514.514,0,0,1,.163.051.48.48,0,0,1,.146.077.523.523,0,0,1,.129.1.78.78,0,0,1,.189.283.857.857,0,0,1-.789,1.183Zm0-3.429a.863.863,0,0,1-.857-.857.583.583,0,0,1,0-.171,1.14,1.14,0,0,1,.043-.163l.086-.146a1.354,1.354,0,0,1,.1-.129.857.857,0,0,1,.283-.189.8.8,0,0,1,.489-.043l.163.043a.857.857,0,0,1,.146.086.377.377,0,0,1,.129.1.839.839,0,0,1,0,1.209.746.746,0,0,1-.274.189.857.857,0,0,1-.309.069Z"/></g></g></svg>