<svg xmlns="http://www.w3.org/2000/svg" xmlns:xlink="http://www.w3.org/1999/xlink" width="18" height="18" viewBox="0 0 18 18"><defs><style>.a,.c{fill:#fff;}.a{stroke:#707070;}.b{opacity:0.8;clip-path:url(#a);}</style><clipPath id="a"><rect class="a" width="18" height="18" transform="translate(25 273)"/></clipPath></defs><g class="b" transform="translate(-25 -273)"><g transform="translate(23.2 271.2)"><path class="c" d="M10.8,6.3h1.8V8.1H10.8Zm3.6,0h1.8V8.1H14.4Zm0,3.6h1.8v1.8H14.4Zm0,3.6h1.8v1.8H14.4Z"/><path class="c" d="M18.9,2.7H6.3a.85.85,0,0,0-.9.9V7.83l-3.24,2.7a.819.819,0,0,0-.36.72V18a.85.85,0,0,0,.9.9H18.9a.85.85,0,0,0,.9-.9V3.6a.85.85,0,0,0-.9-.9ZM10.8,17.1H8.1V13.5H6.3v3.6H3.6V11.61L7.2,8.64l3.6,2.97V17.1Zm7.2,0H12.6V11.25a.819.819,0,0,0-.36-.72L7.74,6.75a.965.965,0,0,0-.54-.18V4.5H18V17.1Z"/></g></g></svg>