<svg xmlns="http://www.w3.org/2000/svg" xmlns:xlink="http://www.w3.org/1999/xlink" width="60" height="60" viewBox="0 0 60 60"><defs><style>.a{fill:#f1f4f7;}.b{clip-path:url(#a);}.c{fill:#fff;}.d{fill:#3685fd;}</style><clipPath id="a"><rect class="a" width="60" height="60" rx="5" transform="translate(20 88)"/></clipPath></defs><g class="b" transform="translate(-20 -88)"><rect class="c" width="60" height="60" rx="5" transform="translate(20 88)"/><g transform="translate(31.86 101.196)"><path class="d" d="M15.465.146a1.106,1.106,0,0,1,1.051.008q7.367,4.315,14.735,8.627a1.337,1.337,0,0,1,.615.776,1.377,1.377,0,0,1-.126,1.033,1.242,1.242,0,0,1-.782.588,2.07,2.07,0,0,1-.568.042H28.635q0,2.92,0,5.839A9.972,9.972,0,0,0,20.868,31.1q-9.088-.007-18.176,0a3.9,3.9,0,0,1-.731-.036,2.269,2.269,0,0,1,.207-4.493c.379-.019.759,0,1.138-.009q0-7.668,0-15.335H1.355a1.3,1.3,0,0,1-.906-.347A1.331,1.331,0,0,1,.268,9.2a1.435,1.435,0,0,1,.463-.426L15.465.146M15.748,6.9a1.437,1.437,0,0,0-.28.45c-.41.829-.817,1.66-1.229,2.488-.987.14-1.973.286-2.96.428a.794.794,0,0,0-.521.282.778.778,0,0,0-.094.837,1.318,1.318,0,0,0,.3.353l2.019,1.965c-.169,1.008-.348,2.014-.514,3.022a.776.776,0,0,0,.675.863.94.94,0,0,0,.613-.165c.8-.424,1.609-.844,2.412-1.269.049-.019.1-.075.157-.029q1.316.693,2.634,1.385a.776.776,0,0,0,1.12-.843c-.172-.983-.333-1.968-.509-2.95.639-.641,1.3-1.265,1.941-1.9a1.593,1.593,0,0,0,.392-.463.775.775,0,0,0-.6-1.078c-1-.151-2-.285-3-.442-.43-.891-.875-1.774-1.31-2.662a.8.8,0,0,0-.431-.422.772.772,0,0,0-.81.151M8.134,22.218a.809.809,0,0,0-.3,1.514,1.058,1.058,0,0,0,.565.1q3.523,0,7.046,0a.811.811,0,1,0-.039-1.62c-2.425,0-4.85-.006-7.275.006m0,3.4a.809.809,0,0,0-.27,1.529,1.094,1.094,0,0,0,.538.087q3.523,0,7.047,0a.811.811,0,1,0-.043-1.62c-2.424,0-4.848-.006-7.272.006Z" transform="translate(0 0)"/><path class="d" d="M40.944,31.892a7.275,7.275,0,1,1-.367,13.71,10.729,10.729,0,0,1-1.016-.475c-1.221.319-2.44.65-3.659.978.332-1.219.653-2.44.984-3.659a7.279,7.279,0,0,1,4.058-10.555M39.664,37.9a1.012,1.012,0,1,0,1.176.663,1.017,1.017,0,0,0-1.176-.663m3.4,0a1.012,1.012,0,1,0,1.169.639,1.015,1.015,0,0,0-1.169-.639m3.362,0a1.012,1.012,0,1,0,1.169.641A1.015,1.015,0,0,0,46.426,37.9Z" transform="translate(-14.235 -12.516)"/></g></g></svg>