<svg xmlns="http://www.w3.org/2000/svg" xmlns:xlink="http://www.w3.org/1999/xlink" width="90" height="90" viewBox="0 0 90 90"><defs><style>.a,.b,.k{fill:#fff;}.a{stroke:#707070;}.c{clip-path:url(#a);}.d,.o{fill:#ff9c9c;}.e,.i,.l,.n{fill:#6e6e96;}.f{fill:#ffead6;}.g{fill:#853737;}.g,.l{opacity:0.2;}.h{fill:#d59758;}.h,.i{opacity:0.15;}.j{fill:#f0f0ff;}.k{opacity:0.54;}.m{fill:#3f3f3f;}.m,.n{opacity:0.05;}.o{opacity:0.1;}.p,.q{stroke:none;}.q{fill:#eee;}</style><clipPath id="a"><path class="a" d="M0,0H90V90H0Z" transform="translate(20.5 160.5)"/></clipPath></defs><g transform="translate(-20.5 -160.5)"><g class="b" transform="translate(20.5 160.5)"><path class="p" d="M 89.5 89.5 L 0.5 89.5 L 0.5 0.5 L 89.5 0.5 L 89.5 89.5 Z"/><path class="q" d="M 1 1 L 1 89 L 89 89 L 89 1 L 1 1 M 0 0 L 90 0 L 90 90 L 0 90 L 0 0 Z"/></g><g class="c"><g transform="translate(30.906 173.603)"><path class="d" d="M57.855,22.2c0,18.664-10.13,16.139-22.627,16.139S12.6,38.049,12.6,22.2C12.6,10.336,22.732.721,35.228.721S57.855,10.336,57.855,22.2Z" transform="translate(-0.872 -0.21)"/><path class="e" d="M42.6,38.752c-1.158,0-2.338-.027-3.587-.055-1.3-.029-2.636-.06-4-.06-11.9,0-23.138,0-23.138-16.65C11.88,9.864,22.26,0,35.018,0S58.156,9.864,58.156,21.988c0,7.051-1.4,11.508-4.417,14.027-2.718,2.272-6.417,2.738-11.134,2.738ZM35.018,1.022c-12.194,0-22.115,9.4-22.115,20.965,0,7.078,2.016,11.386,6.345,13.557,3.834,1.922,8.954,2.071,15.77,2.071,1.375,0,2.721.03,4.023.06,1.243.028,2.417.055,3.564.055,8.232,0,14.529-1.159,14.529-15.742,0-11.56-9.921-20.965-22.115-20.965Z" transform="translate(-0.662)"/><path class="f" d="M21.8,37.635l-1.008-.583c-.555-.321-1.115-1.743-1.246-3.162l-.3-3.26c-.131-1.419.39-2.434,1.159-2.256l1.4.324" transform="translate(-2.801 -8.256)"/><path class="e" d="M21.336,37.868l-1.009-.583c-.8-.465-1.372-2.18-1.5-3.558l-.3-3.26a3.008,3.008,0,0,1,.689-2.523,1.212,1.212,0,0,1,1.095-.278l1.4.324-.231,1-1.4-.324a.19.19,0,0,0-.191.052,2.159,2.159,0,0,0-.343,1.659l.3,3.26a4.616,4.616,0,0,0,.993,2.767l1.008.583-.512.886Z" transform="translate(-2.591 -8.046)"/><path class="f" d="M21.8,37.635l-1.008-.583c-.555-.321-1.115-1.743-1.246-3.162l-.3-3.26c-.131-1.419.39-2.434,1.159-2.256l1.4.324" transform="translate(-2.801 -8.256)"/><path class="e" d="M21.336,37.868l-1.009-.583c-.8-.465-1.372-2.18-1.5-3.558l-.3-3.26a3.008,3.008,0,0,1,.689-2.523,1.212,1.212,0,0,1,1.095-.278l1.4.324-.231,1-1.4-.324a.19.19,0,0,0-.191.052,2.159,2.159,0,0,0-.343,1.659l.3,3.26a4.616,4.616,0,0,0,.993,2.767l1.008.583-.512.886Z" transform="translate(-2.591 -8.046)"/><path class="f" d="M59.279,77.049V73.554c0-1.425-1.051-5.3-4.17-6.487-4.64-2.342-13.833-2.194-13.833-6.469V51.141a5.2,5.2,0,0,0-5.182-5.182H33.513a5.2,5.2,0,0,0-5.182,5.182V60.6c0,5.49-8.542,3.786-13.276,6.207-4.271,2.233-4.726,5.325-4.726,6.75v3.495" transform="translate(-0.21 -13.383)"/><path class="e" d="M59.58,76.839H58.557V73.344c0-1.165-.945-4.9-3.84-6.01l-.048-.021a28.374,28.374,0,0,0-5.861-1.8c-4.057-.955-8.253-1.943-8.253-5.122V50.931a4.676,4.676,0,0,0-4.671-4.671H33.3a4.676,4.676,0,0,0-4.67,4.671v9.456c0,3.972-3.944,4.587-7.757,5.183a20.045,20.045,0,0,0-5.8,1.479c-3.675,1.922-4.448,4.484-4.448,6.3v3.495H9.608V73.344c0-1.714.65-4.928,5-7.2a20.743,20.743,0,0,1,6.109-1.581c4.288-.67,6.892-1.285,6.892-4.173V50.931A5.7,5.7,0,0,1,33.3,45.238h2.581a5.7,5.7,0,0,1,5.694,5.693v9.456c0,2.37,3.626,3.223,7.465,4.127a29.179,29.179,0,0,1,6.064,1.875c3.347,1.295,4.474,5.315,4.474,6.955v3.5Z" transform="translate(0 -13.173)"/><path class="g" d="M35.233,43.158c-11.969.025-21.767-.221-22.6-14.171q-.053.743-.052,1.488c.032,15.851,10.163,16.118,22.66,16.092s22.632,2.478,22.594-16.185q0-.678-.049-1.355c-.7,16.419-10.535,14.108-22.552,14.132Z" transform="translate(-0.866 -8.44)"/><path class="h" d="M46.138,53.209c0-.05-.006-.1-.007-.148H36.91l-3.717,2.254v7.35c0,1.625-1.069,3.031-5.923,4.452-.959,1.038,1.205,2.286,1.434,2.632.734-.823,5.891-4.614,11.543-4.614,5.939,0,10.968,3.51,11.625,4.319.169-.268,2.537-1.287,1.679-2.189-6.287-.864-7.412-3.929-7.412-4.6V53.209Z" transform="translate(-5.072 -15.45)"/><path class="f" d="M66.924,37.635l1.008-.583c.555-.321,1.115-1.743,1.246-3.162l.3-3.26c.131-1.419-.39-2.434-1.159-2.256l-1.4.324" transform="translate(-16.69 -8.256)"/><path class="e" d="M67.075,37.868l-.512-.885,1.009-.583a4.622,4.622,0,0,0,.993-2.767l.3-3.26a2.16,2.16,0,0,0-.343-1.659.191.191,0,0,0-.192-.052l-1.4.324-.231-1,1.4-.324a1.212,1.212,0,0,1,1.1.278,3.007,3.007,0,0,1,.688,2.523l-.3,3.26c-.131,1.413-.688,3.089-1.5,3.558Z" transform="translate(-16.584 -8.046)"/><path class="f" d="M66.924,37.635l1.008-.583c.555-.321,1.115-1.743,1.246-3.162l.3-3.26c.131-1.419-.39-2.434-1.159-2.256l-1.4.324" transform="translate(-16.69 -8.256)"/><path class="e" d="M67.075,37.868l-.512-.885,1.009-.583a4.622,4.622,0,0,0,.993-2.767l.3-3.26a2.16,2.16,0,0,0-.343-1.659.191.191,0,0,0-.192-.052l-1.4.324-.231-1,1.4-.324a1.212,1.212,0,0,1,1.1.278,3.007,3.007,0,0,1,.688,2.523l-.3,3.26c-.131,1.413-.688,3.089-1.5,3.558Z" transform="translate(-16.584 -8.046)"/><path class="h" d="M22.86,24.695S28.168,23.033,29.318,16c0,0,10.61,4.219,20.454,1.79,0,0,4.322-.4,4.322,5.746a6.483,6.483,0,0,0,1.3-6.513c-1.3-3.963-28.252-6.392-28.252-6.392S22.86,21.115,22.86,24.695Z" transform="translate(-3.859 -3.096)"/><path class="f" d="M54.044,26.2c-.161-3.618-.881-4.89-3.623-4.89-4.318,0-16.04-1.485-21.52-6.965,0,0-1.995,8.38-6.041,9.953h0V38.458a6.407,6.407,0,0,0,2.4,4.643l8.34,5.913A9.239,9.239,0,0,0,38.452,50.2,9.239,9.239,0,0,0,43.3,49.014l8.34-5.913a6.408,6.408,0,0,0,2.4-4.643h0V26.2Z" transform="translate(-3.859 -4.176)"/><path class="e" d="M38.242,50.295a9.928,9.928,0,0,1-5.147-1.278L24.754,43.1a6.861,6.861,0,0,1-2.616-5.061V23.8l.1-.306.224-.088c3.748-1.457,5.709-9.513,5.729-9.595l.212-.89.647.647c5.149,5.15,16.478,6.815,21.158,6.815,3.293,0,3.975,1.811,4.134,5.379V38.044A6.86,6.86,0,0,1,51.729,43.1l-8.34,5.913a9.928,9.928,0,0,1-5.147,1.278ZM23.161,24.214v13.83a5.91,5.91,0,0,0,2.184,4.226l8.34,5.913a8.686,8.686,0,0,0,4.556,1.09,8.686,8.686,0,0,0,4.556-1.09l8.34-5.913a5.911,5.911,0,0,0,2.185-4.226V25.781c-.165-3.714-.959-4.379-3.111-4.379-3.7,0-15.225-1.216-21.247-6.519-.616,2.15-2.5,7.744-5.8,9.331Z" transform="translate(-3.649 -3.761)"/><path class="h" d="M19.582,35.112s.468,2.463,2.324,2.463V39.6S19.582,38.87,19.582,35.112Z" transform="translate(-2.904 -10.224)"/><path class="i" d="M21.981,39.77l-.168-.055c-.1-.032-2.411-.836-2.411-4.613l.253-.024c0,.024.471,2.359,2.2,2.359h.128V39.77Zm-2.27-3.727A3.965,3.965,0,0,0,21.725,39.4V37.689a2.477,2.477,0,0,1-2.014-1.646Z" transform="translate(-2.852 -10.214)"/><path class="h" d="M69.278,35.112s-.468,2.463-2.324,2.463V39.6S69.278,38.87,69.278,35.112Z" transform="translate(-16.698 -10.224)"/><path class="i" d="M66.774,39.77V37.437H66.9c1.73,0,2.194-2.336,2.2-2.359l.253.024c0,3.777-2.313,4.58-2.411,4.613l-.168.055Zm.255-2.081V39.4a3.967,3.967,0,0,0,2.015-3.359,2.477,2.477,0,0,1-2.015,1.646Z" transform="translate(-16.646 -10.214)"/><path class="g" d="M45.48,15.314c-10.058,0-16.556-6.476-10.058.022a20.506,20.506,0,0,1-7.775-2.642c-.145,6.647-7.892,8.842-7.892,8.842a19.172,19.172,0,0,0,.8,2.588h1.4C26,22.551,28,14.171,28,14.171c4.6,6.36,17.2,6.582,21.52,6.582s3.672,3.695,3.672,3.695c2.651-3.724,1.628-11.035-7.709-9.133Z" transform="translate(-2.955 -3.623)"/><path class="e" d="M30.4,32.132a.511.511,0,0,1-.343-.89c2.132-1.93,4.81-1.919,6.666.026a.512.512,0,0,1-.74.706c-1.467-1.538-3.523-1.528-5.239.026a.508.508,0,0,1-.343.132Zm14.194,0a.511.511,0,0,1-.411-.815,3.581,3.581,0,0,1,2.646-1.537A5.983,5.983,0,0,1,50.9,31.25a.511.511,0,1,1-.706.74A5,5,0,0,0,46.916,30.8,2.567,2.567,0,0,0,45,31.925a.511.511,0,0,1-.412.207Z" transform="translate(-5.905 -8.667)"/><path class="j" d="M59.279,84.93V81.435c0-1.425-1.051-5.3-4.17-6.487-2.143-1.081-4.345-1.144-6.421-1.869-1.958,3.774-7.229,5.966-13.428,5.966-6.228,0-11.519-2.218-13.455-6.02-2.106.7-4.26.386-6.751,1.66-4.27,2.234-4.725,5.325-4.725,6.75V84.93" transform="translate(-0.21 -21.264)"/><path class="e" d="M59.58,84.674H58.557V81.179c0-1.165-.945-4.9-3.84-6.01l-.048-.021a15.256,15.256,0,0,0-3.755-1.166c-.721-.156-1.463-.316-2.193-.542C46.577,77.066,41.4,79.3,35.05,79.3c-6.385,0-11.58-2.258-13.7-5.921a17.175,17.175,0,0,1-2.238.415,11.854,11.854,0,0,0-4.031,1.091c-3.675,1.922-4.447,4.484-4.447,6.295v3.495H9.608V81.179c0-1.714.65-4.928,5-7.2a12.687,12.687,0,0,1,4.359-1.2,13.718,13.718,0,0,0,2.468-.5l.417-.139.2.392c1.8,3.541,6.784,5.74,13,5.74,6.182,0,11.153-2.18,12.974-5.69l.2-.393.418.146a20.708,20.708,0,0,0,2.483.644,16.106,16.106,0,0,1,3.977,1.241c3.347,1.295,4.474,5.315,4.474,6.955v3.5Z" transform="translate(0 -21.007)"/><path class="e" d="M43,53.615a7.431,7.431,0,0,1-4.337-1.31.511.511,0,0,1,.626-.808c.131.1,3.271,2.437,7.882-.046a.511.511,0,1,1,.485.9A9.754,9.754,0,0,1,43,53.615Z" transform="translate(-8.401 -14.964)"/><path class="h" d="M51.644,47.095,43.3,53.007a9.239,9.239,0,0,1-4.852,1.184A9.241,9.241,0,0,1,33.6,53.007l-8.34-5.913c-2.4-1.575-2.4-6.889-2.4-8.507v6.931a6.407,6.407,0,0,0,2.4,4.643l8.34,5.913a9.241,9.241,0,0,0,4.852,1.184A9.24,9.24,0,0,0,43.3,56.075l8.34-5.913a6.407,6.407,0,0,0,2.4-4.643V39.738C54.044,41.356,54.044,45.519,51.644,47.095Z" transform="translate(-3.859 -11.236)"/><path class="k" d="M42.845,75.692c0,.518.935.938,2.088.938s2.088-.42,2.088-.938-.935-.938-2.088-.938S42.845,75.174,42.845,75.692Z" transform="translate(-9.678 -21.767)"/><path class="l" d="M30.451,32.914a.384.384,0,0,1-.257-.668c2.076-1.88,4.683-1.872,6.487.02a.384.384,0,1,1-.555.529c-1.519-1.593-3.646-1.585-5.417.02a.383.383,0,0,1-.257.1Zm14.194,0a.384.384,0,0,1-.308-.612,3.459,3.459,0,0,1,2.554-1.485,5.848,5.848,0,0,1,3.971,1.436.383.383,0,1,1-.529.555,5.168,5.168,0,0,0-3.375-1.227,2.723,2.723,0,0,0-2,1.177.383.383,0,0,1-.309.155Z" transform="translate(-5.957 -8.969)"/><path class="m" d="M70.578,74.97c-2.143-1.081-4.345-1.144-6.421-1.869a7.692,7.692,0,0,1-.7,1.1,11.129,11.129,0,0,1,2.01.764c3.118,1.19,4.17,5.062,4.17,6.487v3.5h5.113v-3.5c0-1.424-1.051-5.3-4.17-6.486Z" transform="translate(-15.679 -21.286)"/><path class="n" d="M74.788,85.014H69.419V81.392c0-1.284-.969-5.177-4.087-6.368a10.961,10.961,0,0,0-2-.76l-.18-.051.113-.149a7.607,7.607,0,0,0,.691-1.087l.051-.1.1.037a21,21,0,0,0,2.528.656,15.731,15.731,0,0,1,3.908,1.22c3.232,1.233,4.24,5.27,4.24,6.6v3.623Zm-5.113-.256h4.858V81.392c0-1.283-.969-5.176-4.087-6.367a15.583,15.583,0,0,0-3.859-1.2,22.556,22.556,0,0,1-2.454-.629,7.9,7.9,0,0,1-.553.877,11.087,11.087,0,0,1,1.856.721c3.232,1.233,4.24,5.271,4.24,6.6Z" transform="translate(-15.591 -21.221)"/><path class="o" d="M36.913,40.359c0,1.871-1.774,1.854-3.963,1.854s-3.963.017-3.963-1.854a3.709,3.709,0,0,1,3.963-3.388,3.709,3.709,0,0,1,3.963,3.388Z" transform="translate(-5.643 -10.765)"/><path class="o" d="M57.473,40.359c0,1.871-1.774,1.854-3.963,1.854s-3.963.017-3.963-1.854a4.012,4.012,0,0,1,7.926,0Z" transform="translate(-11.63 -10.765)"/></g></g></g></svg>