<svg xmlns="http://www.w3.org/2000/svg" xmlns:xlink="http://www.w3.org/1999/xlink" width="90" height="90" viewBox="0 0 90 90"><defs><style>.a,.b,.l{fill:#fff;}.a{stroke:#707070;}.c{clip-path:url(#a);}.d{fill:#bfeaf5;}.e,.k,.n{fill:#6e6e96;}.f{fill:#ffead6;}.g{fill:#d59758;opacity:0.15;}.h,.o{fill:#666;}.i{fill:#3f3f3f;opacity:0.49;}.j,.k,.o{opacity:0.1;}.m{fill:#bdf2ff;}.n{opacity:0.13;}.p,.q{stroke:none;}.q{fill:#eee;}</style><clipPath id="a"><path class="a" d="M0,0H63.721V63.721H0Z" transform="translate(20.5 160.5)"/></clipPath></defs><g transform="translate(-20.5 -160.5)"><g class="b" transform="translate(20.5 160.5)"><path class="p" d="M 89.5 89.5 L 0.5 89.5 L 0.5 0.5 L 89.5 0.5 L 89.5 89.5 Z"/><path class="q" d="M 1 1 L 1 89 L 89 89 L 89 1 L 1 1 M 0 0 L 90 0 L 90 90 L 0 90 L 0 0 Z"/></g><g class="c" transform="translate(13.139 13.139)"><g transform="translate(27.411 160.5)"><path class="d" d="M59.29,83.085V79.6c0-1.423-1.05-5.289-4.164-6.478-4.633-2.339-9.544-2.3-12.852-6.566-1.347-.458-2.125.587-3.548.587H30.975c-1.423,0-1.979-1.173-3.325-.715-4.282,5.482-7.792,4.014-12.518,6.431-4.264,2.23-4.719,5.318-4.719,6.74v3.49" transform="translate(-9.902 -19.364)"/><path class="e" d="M59.59,82.874H58.569v-3.49c0-1.163-.944-4.9-3.835-6l-.048-.021a32.089,32.089,0,0,0-4.654-1.786c-3.084-1-6-1.946-8.269-4.793a2.29,2.29,0,0,0-1.489.244,4.619,4.619,0,0,1-1.757.411H30.765a3.739,3.739,0,0,1-1.75-.5,1.712,1.712,0,0,0-1.275-.283c-2.865,3.608-5.428,4.245-8.139,4.92A19.51,19.51,0,0,0,15.154,73.1c-3.67,1.919-4.441,4.477-4.441,6.285v3.49H9.691v-3.49c0-1.711.649-4.921,4.993-7.193a20.333,20.333,0,0,1,4.671-1.607c2.679-.666,4.992-1.242,7.682-4.686l.094-.12.144-.049a2.587,2.587,0,0,1,2.2.3,2.77,2.77,0,0,0,1.294.392h7.752a3.679,3.679,0,0,0,1.385-.341,3.134,3.134,0,0,1,2.327-.219l.145.049.094.122c2.092,2.7,4.9,3.611,7.879,4.577a33,33,0,0,1,4.776,1.834c3.342,1.293,4.467,5.308,4.467,6.945v3.49Z" transform="translate(-9.691 -19.153)"/><path class="f" d="M21.879,37.822l-1.007-.582c-.554-.32-1.114-1.741-1.245-3.158l-.3-3.256c-.131-1.417.39-2.431,1.157-2.252l1.395.323" transform="translate(-12.499 -8.337)"/><path class="e" d="M21.412,38.053l-1.007-.582c-.8-.464-1.371-2.177-1.5-3.553l-.3-3.256a3,3,0,0,1,.688-2.52,1.209,1.209,0,0,1,1.093-.277l1.395.323-.231.995-1.395-.323a.191.191,0,0,0-.191.052,2.154,2.154,0,0,0-.342,1.657l.3,3.256a4.609,4.609,0,0,0,.992,2.763l1.007.582-.511.884Z" transform="translate(-12.288 -8.127)"/><path class="f" d="M21.879,37.822l-1.007-.582c-.554-.32-1.114-1.741-1.245-3.158l-.3-3.256c-.131-1.417.39-2.431,1.157-2.252l1.395.323" transform="translate(-12.499 -8.337)"/><path class="e" d="M21.412,38.053l-1.007-.582c-.8-.464-1.371-2.177-1.5-3.553l-.3-3.256a3,3,0,0,1,.688-2.52,1.209,1.209,0,0,1,1.093-.277l1.395.323-.231.995-1.395-.323a.191.191,0,0,0-.191.052,2.154,2.154,0,0,0-.342,1.657l.3,3.256a4.609,4.609,0,0,0,.992,2.763l1.007.582-.511.884Z" transform="translate(-12.288 -8.127)"/><path class="f" d="M48.727,60.77a5.19,5.19,0,0,1-5.175,5.174H40.975A5.189,5.189,0,0,1,35.8,60.77V51.327a5.19,5.19,0,0,1,5.174-5.174h2.577a5.19,5.19,0,0,1,5.175,5.174V60.77Z" transform="translate(-17.315 -13.476)"/><path class="e" d="M43.342,66.244H40.765a5.691,5.691,0,0,1-5.685-5.685V51.117a5.691,5.691,0,0,1,5.685-5.685h2.577a5.692,5.692,0,0,1,5.685,5.685v9.442a5.691,5.691,0,0,1-5.685,5.685ZM40.765,46.453A4.669,4.669,0,0,0,36.1,51.117v9.442a4.669,4.669,0,0,0,4.663,4.663h2.577a4.669,4.669,0,0,0,4.664-4.663V51.117a4.669,4.669,0,0,0-4.664-4.664H40.765Z" transform="translate(-17.104 -13.266)"/><path class="f" d="M48.727,61.954a4.977,4.977,0,0,1-5.175,4.919H40.975A4.976,4.976,0,0,1,35.8,61.954V51.327a5.19,5.19,0,0,1,5.174-5.174h2.577a5.19,5.19,0,0,1,5.175,5.174V61.954Z" transform="translate(-17.315 -13.476)"/><path class="e" d="M43.342,67.173H40.765a5.5,5.5,0,0,1-5.685-5.429V51.116a5.691,5.691,0,0,1,5.685-5.685h2.577a5.692,5.692,0,0,1,5.685,5.685V61.743a5.5,5.5,0,0,1-5.685,5.429Zm-2.577-20.72A4.669,4.669,0,0,0,36.1,51.116V61.744a4.441,4.441,0,0,0,4.663,4.408h2.577a4.442,4.442,0,0,0,4.664-4.408V51.116a4.669,4.669,0,0,0-4.664-4.664H40.765Z" transform="translate(-17.104 -13.265)"/><path class="g" d="M48.727,53.4c0-.05-.006-.1-.007-.148H39.513L35.8,55.5v7.34a5.134,5.134,0,0,0,.86,2.843c.733-.822,2.416-1.914,6.184-1.914,3.009,0,4.428,1.008,5.082,1.816a5.125,5.125,0,0,0,.8-2.746V53.4Z" transform="translate(-17.315 -15.549)"/><path class="f" d="M66.989,37.822,68,37.24c.554-.32,1.113-1.741,1.245-3.158l.3-3.256c.131-1.417-.389-2.431-1.157-2.252l-1.395.323" transform="translate(-26.421 -8.337)"/><path class="e" d="M67.139,38.053l-.512-.884,1.008-.582a4.617,4.617,0,0,0,.991-2.763l.3-3.256a2.156,2.156,0,0,0-.342-1.656.191.191,0,0,0-.191-.052L67,29.184l-.231-.995,1.395-.323a1.21,1.21,0,0,1,1.093.277,3,3,0,0,1,.688,2.52l-.3,3.256c-.13,1.411-.687,3.085-1.5,3.553l-1.006.582Z" transform="translate(-26.316 -8.127)"/><path class="f" d="M66.989,37.822,68,37.24c.554-.32,1.113-1.741,1.245-3.158l.3-3.256c.131-1.417-.389-2.431-1.157-2.252l-1.395.323" transform="translate(-26.421 -8.337)"/><path class="e" d="M67.139,38.053l-.512-.884,1.008-.582a4.617,4.617,0,0,0,.991-2.763l.3-3.256a2.156,2.156,0,0,0-.342-1.656.191.191,0,0,0-.191-.052L67,29.184l-.231-.995,1.395-.323a1.21,1.21,0,0,1,1.093.277,3,3,0,0,1,.688,2.52l-.3,3.256c-.13,1.411-.687,3.085-1.5,3.553l-1.006.582Z" transform="translate(-26.316 -8.127)"/><path class="f" d="M54.078,37.615a6.4,6.4,0,0,1-2.4,4.637l-8.328,5.9a9.226,9.226,0,0,1-4.845,1.182,9.226,9.226,0,0,1-4.844-1.182l-8.328-5.9a6.4,6.4,0,0,1-2.4-4.637v-23.6a2.946,2.946,0,0,1,2.938-2.937H51.139a2.946,2.946,0,0,1,2.938,2.937Z" transform="translate(-13.559 -3.235)"/><path class="e" d="M38.3,49.638a9.913,9.913,0,0,1-5.14-1.276l-8.328-5.9A6.851,6.851,0,0,1,22.217,37.4v-23.6a3.452,3.452,0,0,1,3.448-3.448H50.929a3.452,3.452,0,0,1,3.448,3.448v23.6a6.852,6.852,0,0,1-2.612,5.053l-8.328,5.9a9.916,9.916,0,0,1-5.14,1.276ZM25.666,11.379a2.43,2.43,0,0,0-2.427,2.427v23.6a5.9,5.9,0,0,0,2.181,4.22l8.328,5.9A8.673,8.673,0,0,0,38.3,48.617a8.675,8.675,0,0,0,4.549-1.088l8.328-5.9a5.9,5.9,0,0,0,2.182-4.22v-23.6a2.43,2.43,0,0,0-2.427-2.427H25.666Z" transform="translate(-13.349 -3.024)"/><path class="e" d="M43.063,53.8A7.421,7.421,0,0,1,38.732,52.5a.511.511,0,1,1,.625-.807c.131.1,3.266,2.434,7.871-.045a.511.511,0,1,1,.484.9,9.74,9.74,0,0,1-4.65,1.262Z" transform="translate(-18.113 -15.061)"/><path class="g" d="M51.681,39.119l-8.328,5.9A9.226,9.226,0,0,1,38.508,46.2a9.228,9.228,0,0,1-4.844-1.182l-8.328-5.9c-2.4-1.573-2.4-6.878-2.4-8.494v6.921a6.4,6.4,0,0,0,2.4,4.637l8.328,5.9a9.227,9.227,0,0,0,4.844,1.182,9.228,9.228,0,0,0,4.845-1.182l8.328-5.9a6.4,6.4,0,0,0,2.4-4.637V31.773c0,1.615,0,5.772-2.4,7.345ZM22.939,24.88s5.3-1.659,6.448-8.68c0,0,10.595,4.212,20.424,1.787,0,0,4.316-.4,4.316,5.737a6.473,6.473,0,0,0,1.3-6.5c-1.3-3.957-28.21-6.382-28.21-6.382S22.939,21.305,22.939,24.88Z" transform="translate(-13.559 -3.165)"/><path class="h" d="M20.437,20.446h1.395c4.04-1.57,4.755-9.938,4.755-9.938,7.2,3.749,18.454,3.277,22.765,3.277s3.667,6.984,3.667,6.984c4.829-2.252,3.1-17.33-10.351-19.573S26.382,5.369,26.382,5.369c-4.918-2.418-6.349,2.984-6.349,2.984a17.174,17.174,0,0,0,.4,12.094Z" transform="translate(-12.452 -0.21)"/><path class="e" d="M52.806,21.069a.511.511,0,0,1-.509-.557c0-.039.335-3.888-1.245-5.618a2.451,2.451,0,0,0-1.914-.809c-.385,0-.826,0-1.315.008-.611.005-1.3.011-2.04.011-5.457,0-13.263-.322-18.985-3.026-.285,2.143-1.4,8.236-5,9.634a.51.51,0,0,1-.185.035H20.223a.511.511,0,0,1-.476-.325,17.609,17.609,0,0,1-.412-12.446,7.106,7.106,0,0,1,.919-1.925,4.341,4.341,0,0,1,5.7-1.55C26.741,3.272,29.548,0,37.131,0a33.15,33.15,0,0,1,5.407.482A15.266,15.266,0,0,1,55.649,13.42a10.657,10.657,0,0,1-.306,4.666,4.638,4.638,0,0,1-2.321,2.935.518.518,0,0,1-.216.047Zm-32.23-1.344h.943c3.626-1.527,4.339-9.391,4.346-9.471a.51.51,0,0,1,.745-.409c5.571,2.9,13.611,3.238,19.174,3.238.741,0,1.423-.006,2.031-.011.492,0,.936-.008,1.324-.008a3.466,3.466,0,0,1,2.669,1.143c1.324,1.452,1.538,3.938,1.544,5.348,1.133-1.129,1.642-3.386,1.285-6A14.26,14.26,0,0,0,42.37,1.49a32.146,32.146,0,0,0-5.239-.468c-8.48,0-10.476,4.3-10.5,4.344a.511.511,0,0,1-.692.252,4.913,4.913,0,0,0-2.136-.57c-2.61,0-3.486,3.195-3.495,3.227a.5.5,0,0,1-.023.068,16.777,16.777,0,0,0,.286,11.383Z" transform="translate(-12.238)"/><path class="g" d="M19.662,35.309s.467,2.46,2.32,2.46v2.026s-2.32-.732-2.32-4.485Z" transform="translate(-12.603 -10.31)"/><path class="g" d="M69.339,35.309s-.467,2.46-2.321,2.46v2.026S69.339,39.062,69.339,35.309Z" transform="translate(-26.43 -10.31)"/><path class="i" d="M45.522,14.96c-6.755.385-8.146-2.851-9.989-2.9-1.689-.048,4.255,3.489-.488,2.85a38.7,38.7,0,0,1-8.607-2.565c-.144,6.638-6.6,8.829-6.6,8.829a19.155,19.155,0,0,0,.8,2.585h1.395c4.04-1.57,4.755-9.938,4.755-9.938,7.2,3.749,18.454,3.277,22.765,3.277s3.667,6.984,3.667,6.984c2.647-3.717,1.626-11.018-7.7-9.119Z" transform="translate(-12.653 -3.52)"/><path class="e" d="M30.789,9.219a.511.511,0,0,1-.445-.259A3.821,3.821,0,0,0,28.93,7.534a.511.511,0,1,1,.451-.916,4.787,4.787,0,0,1,1.851,1.839.511.511,0,0,1-.444.762Z" transform="translate(-15.226 -1.917)"/><path class="j" d="M27.7,39.068a2.56,2.56,0,0,0,2.553,2.553h5.616a2.56,2.56,0,0,0,2.553-2.553V33.452H27.7v5.616ZM42,33.452v5.616a2.56,2.56,0,0,0,2.553,2.553h5.616a2.56,2.56,0,0,0,2.553-2.553V33.452H42Z" transform="translate(-14.951 -9.767)"/><path class="k" d="M49.96,41.921H44.344a3.067,3.067,0,0,1-3.064-3.064V32.731H53.024v6.127a3.067,3.067,0,0,1-3.064,3.064ZM42.3,33.752v5.106A2.045,2.045,0,0,0,44.344,40.9H49.96A2.045,2.045,0,0,0,52,38.858V33.752H42.3Zm-6.638,8.169H30.047a3.067,3.067,0,0,1-3.064-3.064V32.731H38.727v6.127a3.067,3.067,0,0,1-3.064,3.064ZM28,33.752v5.106A2.045,2.045,0,0,0,30.047,40.9h5.616a2.045,2.045,0,0,0,2.042-2.042V33.752H28Z" transform="translate(-14.74 -9.557)"/><path class="l" d="M37.393,76.674l-5.8-8.2,2.834-2.834,6.689,6.689Z" transform="translate(-16.085 -19.165)"/><path class="e" d="M37.182,76.976h-.023a.511.511,0,0,1-.393-.215l-5.8-8.2a.511.511,0,0,1,.056-.656l2.834-2.834a.526.526,0,0,1,.722,0l6.689,6.689a.511.511,0,0,1,.027.693L37.57,76.8a.51.51,0,0,1-.388.179Zm-5.139-8.658,5.177,7.318,2.985-3.492-5.994-5.994-2.168,2.169Z" transform="translate(-15.874 -18.957)"/><path class="l" d="M48.994,77.058l5.484-8.588-2.834-2.834-6.689,6.689Z" transform="translate(-19.988 -19.165)"/><path class="e" d="M48.784,77.358a.51.51,0,0,1-.388-.179l-4.039-4.733a.511.511,0,0,1,.027-.692l6.689-6.689a.511.511,0,0,1,.722,0L54.629,67.9a.51.51,0,0,1,.069.636l-5.484,8.588a.511.511,0,0,1-.4.235h-.035ZM45.44,72.141l3.285,3.85,4.892-7.661-2.183-2.183L45.44,72.141Z" transform="translate(-19.777 -18.954)"/><path class="m" d="M27.7,37.145A2.56,2.56,0,0,0,30.258,39.7h5.616a2.56,2.56,0,0,0,2.553-2.553V31.529H27.7v5.616ZM42,31.529v5.616A2.56,2.56,0,0,0,44.554,39.7h5.616a2.56,2.56,0,0,0,2.553-2.553V31.529H42Z" transform="translate(-14.951 -9.206)"/><path class="e" d="M49.96,40H44.344a3.067,3.067,0,0,1-3.064-3.064V30.808H53.024v6.127A3.067,3.067,0,0,1,49.96,40ZM42.3,31.829v5.106a2.045,2.045,0,0,0,2.042,2.042H49.96A2.045,2.045,0,0,0,52,36.935V31.829H42.3ZM35.664,40H30.047a3.067,3.067,0,0,1-3.064-3.064V30.808H38.727v6.127A3.067,3.067,0,0,1,35.664,40ZM28,31.829v5.106a2.045,2.045,0,0,0,2.042,2.042h5.616a2.045,2.045,0,0,0,2.042-2.042V31.829H28Z" transform="translate(-14.74 -8.995)"/><path class="e" d="M53.867,31.588H22.729a.511.511,0,0,1,0-1.021H53.867a.511.511,0,1,1,0,1.021Z" transform="translate(-13.349 -8.925)"/><path class="n" d="M30.259,36.53a.511.511,0,0,1-.361-.872l2.3-2.3a.511.511,0,1,1,.722.722l-2.3,2.3A.509.509,0,0,1,30.259,36.53Zm.511,2.127a.511.511,0,0,1-.361-.872l4.212-4.212a.511.511,0,1,1,.722.722L31.13,38.508a.509.509,0,0,1-.361.15Z" transform="translate(-15.548 -9.697)"/><path class="n" d="M50.571,36.53a.511.511,0,0,1-.361-.872l2.3-2.3a.511.511,0,1,1,.722.722l-2.3,2.3A.51.51,0,0,1,50.571,36.53Zm.511,2.127a.511.511,0,0,1-.361-.872l4.212-4.212a.511.511,0,1,1,.722.722l-4.212,4.212a.51.51,0,0,1-.361.15Z" transform="translate(-21.479 -9.697)"/><path class="o" d="M34.515,66.357q-.286.365-.59.715h3.912c-1.42,0-1.976-1.172-3.322-.714ZM61.992,73.05c-4.633-2.339-9.544-2.3-12.852-6.566a2.2,2.2,0,0,0-.445-.1c2.728,3.6,3,4.477,7.339,6.666C59.149,74.238,60.2,78.1,60.2,79.527v3.49h5.957v-3.49c0-1.422-1.05-5.288-4.164-6.477Z" transform="translate(-16.767 -19.344)"/><path class="o" d="M50.183,69.272l-5.724,6.32-2.9-2.9-.613.809-.712-.809L37.26,75.387l-6.3-5.408,6.251,9.406,3.6-4.165,4.1,4.688Z" transform="translate(-15.901 -20.227)"/></g></g></g></svg>