<svg xmlns="http://www.w3.org/2000/svg" xmlns:xlink="http://www.w3.org/1999/xlink" width="92" height="72" viewBox="0 0 92 72"><defs><style>.a{fill:none;}.b{clip-path:url(#a);}.c{fill:url(#b);}.d{fill:url(#c);}.e{fill:url(#d);}.f{fill:url(#e);}.g{fill:url(#f);}.h{fill:url(#g);}.i{fill:url(#h);}.j{fill:url(#i);}.k{fill:url(#j);}.l{fill:url(#k);}.m{fill:url(#l);}.n{fill:url(#m);}.o{fill:url(#n);}.p{fill:url(#o);}.q{fill:url(#p);}.r{fill:url(#q);}.s{fill:url(#r);}.t{fill:url(#s);}.u{fill:url(#t);}.v{fill:url(#u);}.w{fill:url(#v);}.x{fill:#91b3fa;}.y{fill:#fff;}.z{fill:url(#w);}.aa{fill:url(#x);}.ab{fill:url(#y);}.ac{fill:url(#z);}.ad{fill:url(#aa);}.ae{fill:url(#ab);}.af{fill:url(#ac);}.ag{fill:url(#ad);}.ah{fill:url(#ae);}.ai{fill:url(#af);}.aj{fill:url(#ag);}.ak{fill:url(#ah);}.al{fill:url(#ai);}.am{fill:url(#aj);}.an{fill:url(#ak);}</style><clipPath id="a"><rect class="a" width="92" height="72" transform="translate(162 696)"/></clipPath><linearGradient id="b" x1="1.13" y1="1.295" x2="0.236" y2="0.19" gradientUnits="objectBoundingBox"><stop offset="0" stop-color="#95b0ff"/><stop offset="1" stop-color="#d8e4ff"/></linearGradient><linearGradient id="c" x1="0.536" y1="0.296" x2="-0.384" y2="1.746" gradientUnits="objectBoundingBox"><stop offset="0" stop-color="#ff928e"/><stop offset="1" stop-color="#fe7062"/></linearGradient><linearGradient id="d" x1="2.711" y1="-2.972" x2="5.757" y2="-7.755" gradientUnits="objectBoundingBox"><stop offset="0" stop-color="#febbba"/><stop offset="1" stop-color="#ff928e"/></linearGradient><linearGradient id="e" x1="2.192" y1="-11.027" x2="4.206" y2="-24.956" xlink:href="#d"/><linearGradient id="f" x1="0.738" y1="0.07" x2="1.229" y2="-0.836" xlink:href="#d"/><linearGradient id="g" x1="0.832" y1="0.236" x2="0.149" y2="1.363" gradientUnits="objectBoundingBox"><stop offset="0" stop-color="#fdf53f"/><stop offset="0.665" stop-color="#e57a58"/><stop offset="1" stop-color="#d93c65"/></linearGradient><linearGradient id="h" x1="0.861" y1="-0.306" x2="0.129" y2="1.943" gradientUnits="objectBoundingBox"><stop offset="0" stop-color="#09005d"/><stop offset="1" stop-color="#1a0f91"/></linearGradient><linearGradient id="i" x1="0.865" y1="-0.134" x2="-0.061" y2="1.249" xlink:href="#d"/><linearGradient id="j" x1="0.226" y1="-1.285" x2="0.411" y2="0.11" gradientUnits="objectBoundingBox"><stop offset="0" stop-color="#4f52ff"/><stop offset="1" stop-color="#4042e2"/></linearGradient><linearGradient id="k" x1="0.276" y1="-0.144" x2="0.777" y2="1.439" xlink:href="#d"/><linearGradient id="l" x1="-37.059" y1="1.062" x2="-36.936" y2="0.098" xlink:href="#d"/><linearGradient id="m" x1="-24.389" y1="-0.087" x2="-24.71" y2="-1.041" xlink:href="#d"/><linearGradient id="n" x1="-14.405" y1="-1.293" x2="-14.228" y2="0.101" xlink:href="#h"/><linearGradient id="o" x1="-111.878" y1="-0.847" x2="-113.294" y2="-3.888" xlink:href="#d"/><linearGradient id="p" x1="0.42" y1="-0.291" x2="0.599" y2="2.09" xlink:href="#h"/><linearGradient id="q" x1="-133.868" y1="0.5" x2="-132.868" y2="0.5" xlink:href="#h"/><linearGradient id="r" x1="-124.674" y1="-0.604" x2="-125.414" y2="0.973" xlink:href="#h"/><linearGradient id="s" x1="-79.939" y1="-26.14" x2="-78.83" y2="-29.454" xlink:href="#d"/><linearGradient id="t" x1="2.276" y1="-0.504" x2="0.66" y2="0.439" xlink:href="#h"/><linearGradient id="u" x1="0.277" y1="0.574" x2="3.869" y2="-0.609" xlink:href="#j"/><linearGradient id="v" x1="0.354" y1="-0.31" x2="0.642" y2="1.844" xlink:href="#j"/><linearGradient id="w" x1="0.713" y1="0.39" x2="-0.291" y2="1.332" gradientUnits="objectBoundingBox"><stop offset="0" stop-color="#a22b25"/><stop offset="1" stop-color="#c0423c"/></linearGradient><linearGradient id="x" x1="-75.447" y1="-69.386" x2="-75.637" y2="-65.665" xlink:href="#h"/><linearGradient id="y" x1="-0.143" y1="1.695" x2="0.629" y2="0.424" xlink:href="#w"/><linearGradient id="z" x1="-67.574" y1="-78.986" x2="-67.795" y2="-75.877" xlink:href="#h"/><linearGradient id="aa" x1="0.716" y1="-0.666" x2="-0.227" y2="3.592" xlink:href="#h"/><linearGradient id="ab" x1="68.543" y1="0.088" x2="66.007" y2="2.712" xlink:href="#j"/><linearGradient id="ac" x1="1.07" y1="-0.545" x2="0.005" y2="1.717" xlink:href="#w"/><linearGradient id="ad" x1="-73.434" y1="12.78" x2="-73.138" y2="10.498" xlink:href="#w"/><linearGradient id="ae" x1="-37.974" y1="-95.738" x2="-39.516" y2="-93.521" xlink:href="#h"/><linearGradient id="af" x1="-314.926" y1="40.543" x2="-313.65" y2="33.228" xlink:href="#w"/><linearGradient id="ag" x1="-37.516" y1="0.5" x2="-36.516" y2="0.5" xlink:href="#w"/><linearGradient id="ah" x1="-23.093" y1="-64.461" x2="-24.005" y2="-62.654" xlink:href="#h"/><linearGradient id="ai" x1="0.685" y1="-19.034" x2="0.496" y2="0.931" xlink:href="#j"/><linearGradient id="aj" x1="-42.23" y1="0.134" x2="-42.63" y2="0.8" xlink:href="#h"/><linearGradient id="ak" x1="-435.553" y1="-0.304" x2="-437.392" y2="1.583" xlink:href="#j"/></defs><g class="b" transform="translate(-162 -696)"><g transform="translate(-2259.842 479.553)"><path class="c" d="M2520.641,300.016a29.1,29.1,0,0,1-4.451,3.747c-14.518,10.417-31.7,7.38-35.346,6.639-5.392-1.1-15.813-3.212-23.348-12.072-11.4-13.4-9.623-34.523-.782-48.464,1.618-2.55,10.16-16.7,27.524-18.973,10.509-1.374,22.757,1.4,31.628,8.828C2534.486,255.321,2533.161,286.836,2520.641,300.016Z" transform="translate(-21.227 -13.386)"/><g transform="translate(2425.842 215.627)"><path class="d" d="M2494.924,297.155a2.4,2.4,0,0,1-1.129-.268l-19.617-9.819a9.77,9.77,0,0,0-9.092.181l-19.21,10.594a2.4,2.4,0,0,1-1.118.313,2.482,2.482,0,0,1-1.883-.854,2.312,2.312,0,0,1-.548-1.931l3.277-21.692a9.772,9.772,0,0,0-2.982-8.59l-16.012-15a2.412,2.412,0,0,1,1.254-4.139l21.643-3.587a9.767,9.767,0,0,0,7.248-5.49l9.314-19.862a2.412,2.412,0,0,1,4.324-.086l10.1,19.475a9.768,9.768,0,0,0,7.461,5.2l21.769,2.721a2.411,2.411,0,0,1,1.418,4.086l-15.4,15.623a9.771,9.771,0,0,0-2.637,8.7l4.14,21.544a2.312,2.312,0,0,1-.471,1.951A2.483,2.483,0,0,1,2494.924,297.155Z" transform="translate(-2425.842 -215.627)"/><path class="e" d="M2558.593,620.437a.552.552,0,0,1-.532-.371,12.943,12.943,0,0,0-3.368-5.184l-6.091-5.705a.552.552,0,1,1,.754-.806l6.092,5.705a14.068,14.068,0,0,1,3.656,5.628.552.552,0,0,1-.34.7A.56.56,0,0,1,2558.593,620.437Z" transform="translate(-2535.774 -567.702)"/><path class="f" d="M2759.169,861a.552.552,0,0,1-.278-1.035l2.572-1.418a14,14,0,0,1,13.028-.26.552.552,0,0,1-.494.987,12.9,12.9,0,0,0-12,.239l-2.572,1.418A.548.548,0,0,1,2759.169,861Z" transform="translate(-2724.26 -790.625)"/><path class="g" d="M2578.749,374.087a4.431,4.431,0,0,1-1.3-.168.552.552,0,1,1,.3-1.062,3.361,3.361,0,0,0,3.2-.781,3.324,3.324,0,0,0,1.033-3.138l-2.145-11.164a14,14,0,0,1,3.779-12.47l7.981-8.1a3.4,3.4,0,0,0-2-5.755l-11.28-1.41a14,14,0,0,1-10.693-7.447L2562.4,312.5a3.4,3.4,0,0,0-6.091.121l-4.827,10.293a14,14,0,0,1-10.387,7.868l-11.216,1.859a3.37,3.37,0,0,0-1.753.848.552.552,0,1,1-.751-.809,4.471,4.471,0,0,1,2.324-1.129l11.215-1.859a12.894,12.894,0,0,0,9.568-7.248l4.827-10.293a4.5,4.5,0,0,1,8.07-.161l5.233,10.092a12.9,12.9,0,0,0,9.85,6.86l11.281,1.41a4.5,4.5,0,0,1,2.646,7.625l-7.981,8.1a12.9,12.9,0,0,0-3.481,11.487l2.145,11.164a4.516,4.516,0,0,1-4.323,5.358Z" transform="translate(-2516.735 -299.87)"/></g><g transform="translate(2482.07 272.195)"><path class="h" d="M3145.359,914.941c.424.084,2.841,1.522,2.841-.122v-1.837S3145.237,914.917,3145.359,914.941Z" transform="translate(-3127.322 -897.576)"/><path class="i" d="M3037.97,1004.9a1.958,1.958,0,0,0-1.309-.4,3.765,3.765,0,0,0-1.525.893.21.21,0,0,0-.058.238.221.221,0,0,0,.209.135,13.278,13.278,0,0,0,2.886-.222A2.525,2.525,0,0,0,3037.97,1004.9Z" transform="translate(-3028.413 -979.64)"/><path class="j" d="M3054.564,997.428l-.448.846s-1.012.083-.979-.315a2.854,2.854,0,0,1,.282-.879Z" transform="translate(-3044.62 -972.992)"/><path class="k" d="M3066.006,916.76a29.942,29.942,0,0,1-.589-6.169s-8.4-5.144-9.2-3.916-3.079,9.609-3.079,9.609l1.522.415s2.91-3.941,3.175-7.306c.749,2.454,1.447,8.319,7.211,8.487a.95.95,0,0,0,.961-1.119Z" transform="translate(-3044.62 -891.748)"/><path class="l" d="M3000.455,996.755l-.929.88-.731-.73.963-1.112Z" transform="translate(-2995.888 -971.839)"/><path class="m" d="M3191.484,820.158l.775,2.86a.331.331,0,0,1-.11.35,2.665,2.665,0,0,1-2.69.3.462.462,0,0,1-.271-.4l-.184-2.491Z" transform="translate(-3166.465 -814.331)"/><g transform="translate(18.625 0)"><path class="n" d="M3169.02,785.283s.152,2.706,1.109,3.615,3.01.461,3.859-1.5l-1.053-3.561Z" transform="translate(-3167.168 -781.762)"/><path class="o" d="M3156.542,768.207a.133.133,0,0,1-.163-.121,3.471,3.471,0,0,0-.226-1.095s.128-.342-.9.1-2.575,1.1-3.4.56c-.811-.524-1.477-2.872.731-2.259a.133.133,0,0,0,.169-.125,1.37,1.37,0,0,1,1.009-1.434,1.256,1.256,0,0,1,1.416.455.132.132,0,0,0,.206.014,1.532,1.532,0,0,1,1.931-.406c.773.423.856.928.816,1.236a.133.133,0,0,0,.178.142.8.8,0,0,1,1,.39c.469.7-.329,1.207-.567,1.338a.13.13,0,0,0-.069.1,4.449,4.449,0,0,1-.97,2.64c-.071.067-.25,0-.279-.093l-.459-1.419a.133.133,0,0,0-.157-.089Z" transform="translate(-3151.081 -763.703)"/><path class="p" d="M3202.9,800.512s.473-1.4.967-.891-.266,1.475-.894,1.617Z" transform="translate(-3197.553 -795.814)"/></g><path class="q" d="M2974.718,1005.859a6.631,6.631,0,0,1-1.183-.417l-.891.238a2.847,2.847,0,0,0-1.892.413.256.256,0,0,0,.127.476c.879.015,2.323.029,3.054-.015C2975.028,1006.488,2975.194,1006.52,2974.718,1005.859Z" transform="translate(-2970.627 -980.491)"/><path class="r" d="M3036.936,856.511l-1.926-6.42a.657.657,0,0,0-.584-.466l-2.6-.178a.368.368,0,0,0-.373.49l2.152,6.132a.54.54,0,0,0,.455.358l2.56.284Z" transform="translate(-3025.157 -840.596)"/><path class="s" d="M3079.577,913.187h.013l5.454-.276a.244.244,0,0,0-.024-.488l-5.455.276a.244.244,0,0,0,.012.489Z" transform="translate(-3068.113 -897.073)"/><path class="t" d="M3095.8,902.639s-1.07,1.378-4.13-.4a2.683,2.683,0,0,0-1.755-.707c-.89.089-1.536,1.3-1.536,1.3l1.718-.035a9.757,9.757,0,0,0,7.373,2.895C3097.61,904.581,3096.469,903.639,3095.8,902.639Z" transform="translate(-3076.226 -887.299)"/><path class="u" d="M3161.535,843.905a4.334,4.334,0,0,0-1.885,1.411,4.185,4.185,0,0,0-.88,1.6c-.391,1.341-1.248,3.965-1.815,4.216a13.607,13.607,0,0,1,1.5,2.419c-.241,2.175-.747,2.61-.747,2.61a13.479,13.479,0,0,0,5.543,3.2c2.765-2.036,3.188-7.86,3.188-7.86C3166.657,844.595,3163.467,843.48,3161.535,843.905Z" transform="translate(-3137.725 -835.557)"/><path class="v" d="M3170.719,894.061a.062.062,0,0,1-.041-.11,11.14,11.14,0,0,0,3.188-4.991.062.062,0,1,1,.121.029,11.266,11.266,0,0,1-3.228,5.056A.061.061,0,0,1,3170.719,894.061Z" transform="translate(-3150.011 -875.99)"/><path class="w" d="M3025.6,923.457s-1.244,3.7-7.388,1.626c-2.979-1.006-7.15-6.838-7.15-6.838s-1.03,2.821-6.407,6.605l-1.194-1.073s5.443-9.382,8.232-8.409S3026.45,921.056,3025.6,923.457Z" transform="translate(-3000.07 -899.652)"/><path class="x" d="M3037.784,853.959l2.1,5.842,2.226-.058-1.775-5.6Z" transform="translate(-3030.853 -844.644)"/></g><g transform="translate(2458.348 236.126)"><path class="x" d="M2740.795,416.308v9.3a2.07,2.07,0,0,0,1.972,2.068l11.634.547a2.07,2.07,0,0,0,2.167-2.068v-9.85a2.07,2.07,0,0,0-2.07-2.07h-11.634A2.069,2.069,0,0,0,2740.795,416.308Z" transform="translate(-2740.795 -414.238)"/><path class="y" d="M2762.913,439.828c-.151,0-.278,0-.379,0a.346.346,0,0,1-.084-.679h0a16.919,16.919,0,0,0,2.585-1.02c-3.421-.279-4.1-2.036-4.236-2.84-.333-2.027,1.426-4.32,3.922-5.112,2.546-.808,5.125-.517,6.572.742a4.3,4.3,0,0,1,1.209,4.255C2771.767,439.483,2765.041,439.828,2762.913,439.828Zm-.294-.085Zm-.071-.54h0Zm4.943-1.686-1.084.6a23.7,23.7,0,0,1-2.171,1.046c2.641-.159,7.109-.905,7.654-4.1a3.735,3.735,0,0,0-1-3.682c-1.464-1.274-4.056-1.228-5.977-.619-2.176.691-3.776,2.715-3.5,4.42.254,1.548,2.017,2.414,4.838,2.355Z" transform="translate(-2758.698 -428.123)"/></g><g transform="translate(2473.376 263.79)"><path class="x" d="M2886.4,683.643l.455,9.233a1.154,1.154,0,0,0,1.054,1.092l13.8,1.176a1.152,1.152,0,0,0,1.222-.9c.459-2.034,1.416-6.784,1.15-9.926a1.157,1.157,0,0,0-.966-1.046,64.578,64.578,0,0,0-15.664-.841A1.154,1.154,0,0,0,2886.4,683.643Z" transform="translate(-2886.398 -682.265)"/><circle class="y" cx="0.849" cy="0.849" r="0.849" transform="translate(3.443 2.751)"/><path class="y" d="M2957.354,714.01a.4.4,0,0,1-.095-.012,27.5,27.5,0,0,0-8.47-.583.389.389,0,1,1-.051-.777,28.257,28.257,0,0,1,8.709.6.39.39,0,0,1-.094.768Z" transform="translate(-2941.978 -709.427)"/><path class="y" d="M2957.008,733.122a.39.39,0,0,1-.126-.021c-3.26-1.11-8.021-.512-8.069-.506a.39.39,0,1,1-.1-.773c.2-.026,4.99-.627,8.42.541a.39.39,0,0,1-.126.758Z" transform="translate(-2941.977 -726.548)"/><path class="y" d="M2957.009,751.066a.385.385,0,0,1-.125-.021c-3.256-1.109-8.021-.512-8.069-.506a.389.389,0,1,1-.1-.772c.2-.026,4.99-.627,8.419.541a.39.39,0,0,1-.125.758Z" transform="translate(-2941.978 -742.64)"/></g><g transform="translate(2430.778 219.115)"><path class="z" d="M2601.483,450.95c-.015-.006-8.184-14.311-9.287-15.657a.858.858,0,0,0-.765-.307l-2.279.272-2.679,5.795,4.462-2.6c-.441,3.054,5.291,7.592,7.257,9.248a.451.451,0,0,1,.036.658l-.784.822a9.01,9.01,0,0,0,4.454,2.533Z" transform="translate(-2574.83 -415.828)"/><path class="aa" d="M2691.069,568.274a1.157,1.157,0,0,0-.671.608.511.511,0,0,0,.192.588,25.647,25.647,0,0,0,4.8,2.873.142.142,0,0,0,.177-.167,4.513,4.513,0,0,0-.944-1.727l.06.122a.174.174,0,0,1-.241.23A13.435,13.435,0,0,1,2691.069,568.274Z" transform="translate(-2668.002 -535.365)"/><path class="ab" d="M2590.759,468.518c-.013-.009-1.239-2.962-1.252-2.97a52.009,52.009,0,0,0-4.674-14.242.857.857,0,0,0-.686-.455l-2.288-.2-3.8,5.133,4.9-1.642c-1.05,2.9,3.645,8.506,5.236,10.525a.452.452,0,0,1-.1.651l-.935.646a9.013,9.013,0,0,0,3.849,3.382Z" transform="translate(-2567.289 -429.885)"/><path class="ac" d="M2663.978,595.7a1.156,1.156,0,0,0-.78.46.509.509,0,0,0,.069.615,25.639,25.639,0,0,0,4.12,3.785.142.142,0,0,0,.208-.128,4.526,4.526,0,0,0-.575-1.882l.034.131a.174.174,0,0,1-.283.177A13.437,13.437,0,0,1,2663.978,595.7Z" transform="translate(-2643.57 -559.964)"/><g transform="translate(1.599 19.598)"><path class="ad" d="M2491.421,439.394s-2.069,3.078-2.239,4.482.572,1.89,2.738,2.069c6.447.533,9.624-1.4,9.624-1.4.441-2.812.755-3.527,4.437-5.056,0,0-4.658.37-5.6.006S2491.421,439.394,2491.421,439.394Z" transform="translate(-2489.159 -439.303)"/></g><g transform="translate(0)"><path class="ae" d="M2498.466,339.279a47.265,47.265,0,0,0,3.6-3.815,3.225,3.225,0,0,0,.546-2.9,40.032,40.032,0,0,0-1.592-4.009c-.135-.451-2.837-.432-2.837-.432a20.721,20.721,0,0,0-7.407,9.3l2.347.73a27.389,27.389,0,0,1,2.76-3.81s-2.375,3.136-2.458,4.42Z" transform="translate(-2489.007 -319.998)"/><path class="af" d="M2566.8,298.852c-.028.094-.733,2.432-.789,2.481a3.948,3.948,0,0,1-2.249-.351l1.433-3.17Z" transform="translate(-2554.461 -292.816)"/><path class="ag" d="M2579.353,277.184a4.356,4.356,0,0,1-.088,2.923c-.59,1.763-1.554,1.917-2.165,1.481a3.477,3.477,0,0,1-1.5-2.812C2575.5,277.178,2578.661,275.717,2579.353,277.184Z" transform="translate(-2565.077 -273.775)"/><path class="ah" d="M2567.7,263.234s1.065-2.387,2.663-.9l.124.614s1.521-.434,1.021-1.813a2.8,2.8,0,0,0-3.946-1.421c-1.628.894-2.181,1.947-2.094,3.2s1.029.826,1.029.826.182-.923.624-1.087.432.535.432.535Z" transform="translate(-2555.983 -258.337)"/><path class="ai" d="M2577.314,286.117s.555-1.224-.222-1.268-.461,1.18-.306,1.626Z" transform="translate(-2565.966 -281.191)"/><path class="aj" d="M2498.335,420.969l-1.811-1.97-2.092.563a12.082,12.082,0,0,1-3.833,0l-1.4-.378-3.154-.982-.5,1.4a.842.842,0,0,0,.308.968,5.593,5.593,0,0,0,.8.5c.416.182,9.567.057,9.567.057Z" transform="translate(-2484.284 -400.782)"/><path class="ak" d="M2484.574,251.68a.546.546,0,0,0,.315-.915c-.956-1.045-2.761-2.2-5.332-.425-2.9,2-4.464,2.91-5.175,2.72a.549.549,0,0,0-.653.768,2.328,2.328,0,0,0,1.109.953C2479.572,257.117,2482.02,251.991,2484.574,251.68Z" transform="translate(-2473.667 -249.418)"/></g><g transform="translate(7.702 13.404)"><path class="al" d="M2548.647,446.009h.02L2557,446a.373.373,0,0,0,0-.746l-8.33.009a.373.373,0,0,0-.018.745Z" transform="translate(-2548.293 -438.446)"/><path class="am" d="M2606.634,379.289H2599.7a1.322,1.322,0,0,0-1.2.758l-3.207,6.8h8.62a.8.8,0,0,0,.748-.508l2.487-6.292A.554.554,0,0,0,2606.634,379.289Z" transform="translate(-2590.443 -379.289)"/><path class="an" d="M2657.228,407.034c-.15.467-.039.921.248,1.013s.643-.211.793-.678.039-.921-.249-1.013S2657.379,406.567,2657.228,407.034Z" transform="translate(-2645.925 -403.547)"/></g></g></g></g></svg>