<svg xmlns="http://www.w3.org/2000/svg" xmlns:xlink="http://www.w3.org/1999/xlink" width="84" height="72" viewBox="0 0 84 72"><defs><style>.a{fill:none;}.b{clip-path:url(#a);}.c{fill:url(#b);}.d{fill:#91b3fa;}.e{fill:#bdd0fb;}.f{fill:url(#c);}.g{fill:url(#d);}.h{fill:url(#e);}.i{fill:url(#f);}.j{fill:url(#g);}.k{fill:url(#h);}.l{fill:url(#i);}.m,.n{fill:#fff;}.n{opacity:0.53;}.o{fill:url(#j);}.p{fill:url(#k);}.q{fill:url(#l);}.r{fill:url(#m);}.s{fill:url(#n);}.t{fill:url(#o);}.u{fill:url(#p);}.v{fill:url(#q);}.w{fill:url(#r);}.x{fill:url(#s);}.y{fill:url(#t);}.z{fill:url(#u);}.aa{fill:url(#v);}.ab{fill:url(#w);}.ac{fill:url(#x);}.ad{fill:url(#y);}.ae{fill:url(#z);}.af{fill:url(#aa);}.ag{fill:url(#ab);}.ah{fill:url(#ac);}.ai{fill:url(#ad);}.aj{fill:url(#ae);}.ak{fill:url(#af);}.al{fill:url(#ag);}.am{fill:url(#ah);}.an{fill:url(#ai);}.ao{fill:url(#aj);}.ap{fill:url(#ak);}.aq{fill:url(#al);}.ar{fill:url(#am);}.as{fill:url(#an);}.at{fill:url(#ao);}</style><clipPath id="a"><rect class="a" width="84" height="72" transform="translate(100 614)"/></clipPath><linearGradient id="b" x1="1.091" y1="1.163" x2="0.386" y2="0.408" gradientUnits="objectBoundingBox"><stop offset="0" stop-color="#dae3fe"/><stop offset="1" stop-color="#e9effd"/></linearGradient><linearGradient id="c" x1="1.63" y1="0.832" x2="-1.324" y2="-0.426" xlink:href="#b"/><linearGradient id="d" x1="-4.531" y1="6.026" x2="-2.944" y2="6.026" gradientUnits="objectBoundingBox"><stop offset="0" stop-color="#09005d"/><stop offset="1" stop-color="#1a0f91"/></linearGradient><linearGradient id="e" x1="0.866" y1="0.01" x2="-0.095" y2="1.309" gradientUnits="objectBoundingBox"><stop offset="0" stop-color="#4042e2"/><stop offset="1" stop-color="#4f52ff"/></linearGradient><linearGradient id="f" x1="2.126" y1="-1.467" x2="1.414" y2="-0.606" gradientUnits="objectBoundingBox"><stop offset="0" stop-color="#ff928e"/><stop offset="1" stop-color="#fe7062"/></linearGradient><linearGradient id="g" x1="0" y1="0.5" x2="1" y2="0.5" xlink:href="#b"/><linearGradient id="h" x1="5.183" y1="-6.397" x2="-0.414" y2="1.807" xlink:href="#f"/><linearGradient id="i" x1="3.21" y1="-8.352" x2="0.306" y2="1.147" xlink:href="#f"/><linearGradient id="j" x1="6.032" y1="1.27" x2="7.201" y2="1.27" xlink:href="#d"/><linearGradient id="k" x1="0.182" y1="-0.008" x2="0.182" y2="1.309" xlink:href="#d"/><linearGradient id="l" x1="1.661" y1="0.364" x2="4.593" y2="0.003" gradientUnits="objectBoundingBox"><stop offset="0" stop-color="#ff928e"/><stop offset="1" stop-color="#feb3b1"/></linearGradient><linearGradient id="m" x1="5.71" y1="-0.156" x2="2.407" y2="0.29" xlink:href="#l"/><linearGradient id="n" x1="-0.258" y1="0.056" x2="1.538" y2="0.888" xlink:href="#l"/><linearGradient id="o" x1="-90.91" y1="-1.451" x2="-91.751" y2="0.424" xlink:href="#d"/><linearGradient id="p" x1="-144.501" y1="-27.71" x2="-145.456" y2="-26.299" xlink:href="#d"/><linearGradient id="q" x1="3.255" y1="-0.646" x2="0.765" y2="0.448" gradientUnits="objectBoundingBox"><stop offset="0" stop-color="#53d8ff"/><stop offset="1" stop-color="#3840f7"/></linearGradient><linearGradient id="r" x1="2.821" y1="-0.591" x2="-0.787" y2="1.201" xlink:href="#l"/><linearGradient id="s" x1="3.923" y1="-2.894" x2="0.893" y2="0.041" xlink:href="#f"/><linearGradient id="t" x1="1.388" y1="-1.212" x2="0.876" y2="-0.293" xlink:href="#l"/><linearGradient id="u" x1="3.287" y1="-5.543" x2="1.503" y2="-1.721" xlink:href="#l"/><linearGradient id="v" x1="1.67" y1="1.646" x2="0.175" y2="0.056" xlink:href="#l"/><linearGradient id="w" x1="1.452" y1="-0.263" x2="0.017" y2="1.037" xlink:href="#d"/><linearGradient id="x" x1="-7.881" y1="-30.479" x2="-8.328" y2="-23.882" xlink:href="#d"/><linearGradient id="y" x1="-44.507" y1="0.5" x2="-43.507" y2="0.5" xlink:href="#l"/><linearGradient id="z" x1="-0.648" y1="0.989" x2="1.73" y2="-0.23" xlink:href="#d"/><linearGradient id="aa" x1="-26.293" y1="-36.335" x2="-27.401" y2="-28.608" xlink:href="#d"/><linearGradient id="ab" x1="-60.057" y1="0.5" x2="-59.057" y2="0.5" xlink:href="#l"/><linearGradient id="ac" x1="-0.337" y1="1.024" x2="1.338" y2="-0.173" xlink:href="#d"/><linearGradient id="ad" x1="-0.146" y1="-1.249" x2="0.583" y2="0.385" xlink:href="#f"/><linearGradient id="ae" x1="-6.297" y1="0.5" x2="-5.297" y2="0.5" xlink:href="#l"/><linearGradient id="af" x1="3.591" y1="2.672" x2="-0.018" y2="0.239" xlink:href="#l"/><linearGradient id="ag" x1="-37.605" y1="0.706" x2="-35.585" y2="-1.072" xlink:href="#l"/><linearGradient id="ah" x1="-1.477" y1="-3.81" x2="0.352" y2="0.37" xlink:href="#f"/><linearGradient id="ai" x1="-0.264" y1="0.488" x2="0.951" y2="0.502" xlink:href="#l"/><linearGradient id="aj" x1="-5.521" y1="0.545" x2="-5.003" y2="3.03" xlink:href="#e"/><linearGradient id="ak" x1="2.827" y1="-4.496" x2="1.357" y2="-1.332" xlink:href="#l"/><linearGradient id="al" x1="0.359" y1="-0.083" x2="0.702" y2="1.525" xlink:href="#l"/><linearGradient id="am" x1="-145.589" y1="-45.887" x2="-145.058" y2="-47.431" xlink:href="#l"/><linearGradient id="an" x1="-110.066" y1="-39.021" x2="-109.861" y2="-37.842" xlink:href="#d"/><linearGradient id="ao" x1="-477.62" y1="-225.424" x2="-475.886" y2="-232.905" xlink:href="#l"/></defs><g class="b" transform="translate(-100 -614)"><g transform="translate(-1234.717 429.576)"><path class="c" d="M1414.286,259.375a33.538,33.538,0,0,1-5.89,4.781c-15.253,10.185-32.69,7.249-38.081,6.246-8.7-1.619-16.04-2.761-22.347-8.46-14.334-12.95-13.637-39.965-2.684-56.7,1.3-1.984,12.235-18.2,29.709-20.479.427-.056.747-.088,1.026-.117,2.7-.286,19.455-1.8,33.114,9.647a40.748,40.748,0,0,1,8.02,9.1C1427.82,219.87,1427.854,245.39,1414.286,259.375Z" transform="translate(0 0)"/><g transform="translate(1394.165 205.932)"><path class="d" d="M1897.813,387.831c3.1,6.124,19.458,42.44-17.473,62.847,0,0-17.936-21.329,16.337-62.93A.706.706,0,0,1,1897.813,387.831Z" transform="translate(-1875.649 -387.501)"/><path class="e" d="M1956.985,452.792c.084,1.156.128,2.312.16,3.469s.042,2.313.037,3.47q-.013,3.47-.227,6.937a105.332,105.332,0,0,1-1.721,13.771,70.986,70.986,0,0,1-3.9,13.32,48.518,48.518,0,0,1-3.084,6.233c-.595,1-1.221,1.976-1.9,2.919s-1.4,1.855-2.163,2.733a.194.194,0,1,1-.293-.254h0q1.137-1.3,2.151-2.695c.676-.931,1.3-1.9,1.893-2.885a48.149,48.149,0,0,0,3.086-6.177,70.7,70.7,0,0,0,3.934-13.247,105.2,105.2,0,0,0,1.772-13.731q.224-3.457.255-6.924.014-1.733-.023-3.465c-.028-1.154-.067-2.31-.146-3.46h0a.082.082,0,0,1,.164-.012Z" transform="translate(-1936.627 -445.809)"/></g><g transform="translate(1338.39 185.275)"><g transform="translate(3.326 0)"><path class="e" d="M1385.12,192.831c-2.527,6.434-15.706,44.478,17.772,63.257,0,0,15.123-22.812-16.768-63.407A.585.585,0,0,0,1385.12,192.831Z" transform="translate(-1380.447 -192.459)"/><path class="f" d="M1441.611,260.006c-.046,2.32,0,4.645.1,6.966s.253,4.64.465,6.953a123.287,123.287,0,0,0,2.015,13.78,80.4,80.4,0,0,0,3.909,13.341c.426,1.078.892,2.139,1.385,3.187s1.023,2.078,1.593,3.085a37.319,37.319,0,0,0,3.921,5.708h0a.218.218,0,0,1-.334.28h0a37.771,37.771,0,0,1-3.94-5.791q-.856-1.528-1.593-3.118c-.492-1.058-.957-2.128-1.38-3.215a80.692,80.692,0,0,1-3.866-13.416,123.6,123.6,0,0,1-1.958-13.82q-.3-3.477-.434-6.966c-.086-2.325-.126-4.651-.069-6.981a.092.092,0,1,1,.184,0Z" transform="translate(-1434.945 -252.766)"/></g><g transform="translate(0 30.053)"><path class="d" d="M1349.327,476.5c-.5,3.9-2.5,26.724,18.581,32.444,0,0,5.182-14.687-18.047-32.666A.333.333,0,0,0,1349.327,476.5Z" transform="translate(-1349.04 -476.209)"/><path class="e" d="M1369.824,510.58c.305,1.254.662,2.5,1.036,3.737s.782,2.466,1.212,3.686.889,2.429,1.374,3.627,1,2.386,1.547,3.555a54.808,54.808,0,0,0,3.733,6.78c.17.274.361.534.541.8l.273.4c.091.133.19.26.285.391.192.258.379.521.576.775l.6.756a29.053,29.053,0,0,0,2.632,2.813l0,0a.213.213,0,0,1-.29.313h0a29.436,29.436,0,0,1-2.65-2.877l-.6-.77c-.2-.259-.384-.526-.576-.788-.094-.133-.193-.262-.284-.4l-.273-.4c-.179-.271-.37-.535-.539-.813a55.111,55.111,0,0,1-3.7-6.851c-.545-1.178-1.045-2.376-1.525-3.581s-.929-2.422-1.35-3.649-.817-2.461-1.185-3.7-.712-2.493-1.01-3.758a.09.09,0,0,1,.176-.042Z" transform="translate(-1367.463 -506.876)"/></g></g><g transform="translate(1352.301 188.103)"><g transform="translate(0 0)"><path class="g" d="M1484.939,302.933h40.869a5.956,5.956,0,0,0,6.2-5.491c.385-13.57,1.318-61.034,1.109-73.952a4.363,4.363,0,0,0-4.432-4.083c-9.495-.249-32.325-.654-42.925.843a4.433,4.433,0,0,0-3.974,4.081c-.4,11.37-1.671,61.684-1.352,74.6A4.328,4.328,0,0,0,1484.939,302.933Z" transform="translate(-1480.382 -219.163)"/><path class="h" d="M1500.452,324.57h40.786a3.556,3.556,0,0,0,3.773-3.217l1.028-72.036a3.441,3.441,0,0,0-3.658-3.226l-40.421-.121a2.537,2.537,0,0,0-2.695,2.268l-1.722,73.752A2.724,2.724,0,0,0,1500.452,324.57Z" transform="translate(-1495.724 -243.132)"/><path class="d" d="M1522.644,346.122h36.668a3.254,3.254,0,0,0,3.392-3.036l.924-67.985a3.154,3.154,0,0,0-3.289-3.044L1524,271.943a2.32,2.32,0,0,0-2.423,2.14l-1.548,69.6A2.5,2.5,0,0,0,1522.644,346.122Z" transform="translate(-1515.829 -266.353)"/></g><g transform="translate(11.127 16.277)"><circle class="i" cx="12.048" cy="12.048" r="12.048" transform="translate(3.565 3.427)"/><circle class="j" cx="10.986" cy="10.986" r="10.986" transform="translate(0 15.537) rotate(-45)"/><path class="k" d="M1707.029,453.5c0,1.86-1.508,3.869-3.368,3.869s-3.368-2.008-3.368-3.869a3.374,3.374,0,0,1,6.737,0Z" transform="translate(-1688.128 -442.112)"/><path class="l" d="M1672.944,533.1h8.223a1.99,1.99,0,0,0,1.9-1.384l.442-1.383a1.988,1.988,0,0,0-1.2-2.474,15.325,15.325,0,0,0-10.351.113,1.982,1.982,0,0,0-1.27,2.4l.341,1.256A1.99,1.99,0,0,0,1672.944,533.1Z" transform="translate(-1661.592 -510.681)"/></g><g transform="translate(8.99 7.763)"><path class="m" d="M1567.182,300.548l-1.918-7.559h1.032l.9,3.825c.224.942.426,1.884.561,2.613h.023c.123-.751.359-1.649.617-2.624l1.01-3.813h1.021l.92,3.836c.213.9.415,1.795.527,2.591h.022c.157-.83.37-1.671.605-2.613l1-3.813h1l-2.142,7.559h-1.021l-.953-3.937a22.647,22.647,0,0,1-.493-2.467h-.023a23.689,23.689,0,0,1-.583,2.467l-1.077,3.937Z" transform="translate(-1565.264 -292.933)"/><path class="m" d="M1651.674,298.171l-.785,2.378h-1.01l2.568-7.559h1.177l2.58,7.559h-1.043l-.808-2.378Zm2.479-.763-.74-2.176c-.168-.494-.28-.942-.393-1.38H1653c-.112.449-.235.908-.381,1.368l-.74,2.187Z" transform="translate(-1640.917 -292.933)"/><path class="m" d="M1720.092,300.548v-7.559h1.065l2.423,3.825a21.432,21.432,0,0,1,1.357,2.456l.022-.011c-.09-1.009-.112-1.929-.112-3.107v-3.163h.92v7.559h-.987l-2.4-3.836a23.933,23.933,0,0,1-1.413-2.523l-.034.011c.056.953.079,1.862.079,3.118v3.23Z" transform="translate(-1703.694 -292.933)"/><path class="m" d="M1783.918,293.819h-2.3v-.83h5.6v.83h-2.31v6.73h-.987Z" transform="translate(-1758.704 -292.933)"/><path class="m" d="M1846.32,297h-2.938v2.725h3.275v.819h-4.251v-7.559h4.083v.819h-3.107V296.2h2.938Z" transform="translate(-1813.053 -292.933)"/><path class="m" d="M1894.51,292.617a13.99,13.99,0,0,1,2.075-.157,4.331,4.331,0,0,1,3.062.942,3.482,3.482,0,0,1,1.065,2.714,4,4,0,0,1-1.088,2.939,4.658,4.658,0,0,1-3.342,1.088,15.726,15.726,0,0,1-1.772-.09Zm.976,6.685a6.174,6.174,0,0,0,.987.056,2.906,2.906,0,0,0,3.219-3.208c.011-1.783-1-2.916-3.062-2.916a5.547,5.547,0,0,0-1.144.1Z" transform="translate(-1859.639 -292.46)"/></g><path class="n" d="M1586.783,710.682h-35.166a1.58,1.58,0,0,1-1.58-1.58h0a1.58,1.58,0,0,1,1.58-1.58h35.166a1.58,1.58,0,0,1,1.58,1.58h0A1.58,1.58,0,0,1,1586.783,710.682Z" transform="translate(-1542.66 -655.798)"/><path class="n" d="M1582.713,769.086h-35.166a1.58,1.58,0,0,1-1.58-1.58h0a1.58,1.58,0,0,1,1.58-1.58h35.166a1.58,1.58,0,0,1,1.58,1.58h0A1.58,1.58,0,0,1,1582.713,769.086Z" transform="translate(-1539.021 -708.017)"/><path class="n" d="M1584.443,832.384h-35.166a1.58,1.58,0,0,1-1.58-1.58h0a1.58,1.58,0,0,1,1.58-1.58h35.166a1.58,1.58,0,0,1,1.58,1.58h0A1.58,1.58,0,0,1,1584.443,832.384Z" transform="translate(-1540.568 -764.611)"/><rect class="n" width="38.326" height="3.16" rx="1.58" transform="translate(6.699 70.799)"/></g><g transform="translate(1341.448 204.571)"><g transform="translate(1.327 0)"><path class="o" d="M1415.664,614.748l-24.352,18.472a2.2,2.2,0,0,0-.314,3.213l.14.157a2.044,2.044,0,0,0,2.9.161l22.833-20.565Z" transform="translate(-1390.442 -589.319)"/><path class="p" d="M1592.542,375.371a15.495,15.495,0,1,0,19.649,10.14A15.637,15.637,0,0,0,1592.542,375.371Zm8.481,27.428a13.219,13.219,0,1,1,8.954-16.6A13.34,13.34,0,0,1,1601.023,402.8Z" transform="translate(-1561.141 -374.651)"/><g transform="translate(21.248 1.011)"><path class="e" d="M1592.4,404.8a.057.057,0,0,1-.056-.033c-.153-.336-.294-.682-.42-1.029a.057.057,0,1,1,.107-.039c.125.344.266.687.417,1.02a.057.057,0,0,1-.048.08Zm-1.177-4.171a.057.057,0,0,1-.06-.05,14.211,14.211,0,0,1-.047-3.024,14.526,14.526,0,0,1,3.174-7.8,14.985,14.985,0,0,1,15.453-5.063.057.057,0,0,1-.029.11,14.784,14.784,0,0,0-8.173.176,14.583,14.583,0,0,0-10.313,12.59,14.114,14.114,0,0,0,.047,3,.057.057,0,0,1-.05.063Z" transform="translate(-1591.055 -384.198)"/></g><path class="e" d="M1398.444,777.442h-.005a1.7,1.7,0,0,1-1.752-1.022,1.659,1.659,0,0,1,.562-1.847l2.9-2.3a.057.057,0,0,1,.071.089l-2.9,2.3a1.546,1.546,0,0,0-.526,1.72,1.6,1.6,0,0,0,1.648.947.057.057,0,0,1,0,.114Z" transform="translate(-1395.945 -730.145)"/><path class="m" d="M1438.408,763.148a.057.057,0,0,1-.039-.1l.375-.3a.057.057,0,1,1,.071.089l-.375.3A.058.058,0,0,1,1438.408,763.148Z" transform="translate(-1433.274 -721.632)"/></g><g transform="translate(0 24.074)"><path class="q" d="M1401.115,843.63l-2.653.663.663,4.974a5.653,5.653,0,0,0-1.326,2.321c-.332,1.326-.637,6.9-.637,6.9l-.629.38-.076.318,1.831,2.462-.3-1.96c-.048-.311.035-.942.009-.955.995-2.653,3.123-10.125,3.123-10.125Z" transform="translate(-1394.493 -818.033)"/><path class="r" d="M1424.426,820.028c-.029,0-.057,0-.086,0,.128-1.6.714-8.637,1.3-11.275.663-2.984-1-8.953-1-8.953l-2.984,2.984,1.658,5.637c-1.136,1.7.186,11.684.157,11.68l0,.022-.433.595.053.323,2.643,1.559-1.04-1.689A1.9,1.9,0,0,1,1424.426,820.028Z" transform="translate(-1417.028 -778.846)"/><path class="s" d="M1394.273,674.839s-5.81,8.062,0,12.2l.592-.528a6.224,6.224,0,0,1,0-7.564Z" transform="translate(-1390.232 -667.119)"/><path class="t" d="M1435.842,996.215H1435a.508.508,0,0,1-.4-.2c-.263-.342-.808-1.008-1.068-1.026-.351-.023-.306,1.223-.306,1.223h-.2l-.249-1.549a.917.917,0,0,1,.481-.958h0a1.3,1.3,0,0,0,.515.855c.434.262,1.768,1.2,1.768,1.2a1.206,1.206,0,0,1,.343.009A.223.223,0,0,1,1435.842,996.215Z" transform="translate(-1426.955 -952.216)"/><path class="u" d="M1392.447,988.5l-.778-.327a.508.508,0,0,1-.294-.338c-.11-.417-.354-1.242-.587-1.359-.314-.158-.756,1.009-.756,1.009l-.181-.076.371-1.525a.917.917,0,0,1,.815-.7h0a1.3,1.3,0,0,0,.143.988c.3.41,1.164,1.793,1.164,1.793a1.208,1.208,0,0,1,.312.141A.223.223,0,0,1,1392.447,988.5Z" transform="translate(-1388.587 -944.6)"/><path class="v" d="M1408.779,751.785a14.985,14.985,0,0,0,.045,2.654,88.907,88.907,0,0,1,.687,10.887,17.084,17.084,0,0,1-5.314.282s-1.424-6.825-1.077-9.42a8.589,8.589,0,0,1,2.228-4.456Z" transform="translate(-1400.402 -735.868)"/><path class="w" d="M1426.439,636.094l.237,2.79h-2.254l.56-4.259Z" transform="translate(-1419.496 -631.164)"/><path class="x" d="M1411.884,670.511c.778-.043,2.518-.122,3.75-.055a1.431,1.431,0,0,1,1.325,1.137l.3,1.441a3.473,3.473,0,0,1-.049,1.621L1416,679.086s-1.074.645-3.431-.045c0,0-2.07-4.937-1.223-8.1A.587.587,0,0,1,1411.884,670.511Z" transform="translate(-1407.627 -663.178)"/><path class="y" d="M1450.632,673.792c.332.875.632,1.792.954,2.651.164.43.33.852.508,1.239.09.193.189.37.28.531a2.329,2.329,0,0,0,.246.352c.01.009-.024.016-.036.017s.224.038.3.05l.277,0a9.69,9.69,0,0,0,1.3-.178c.911-.17,1.859-.409,2.832-.589h.007a.343.343,0,0,1,.289.595,9.971,9.971,0,0,1-1.24.905c-.217.133-.438.263-.663.388s-.458.234-.7.343a8.093,8.093,0,0,1-1.548.526c-.15.025-.3.051-.453.072-.173.006-.331.021-.52.01q-.151-.015-.3-.037a1.312,1.312,0,0,1-.158-.028c-.069-.021-.138-.044-.206-.069a2.167,2.167,0,0,1-.349-.177c-.1-.063-.183-.129-.267-.2a3.617,3.617,0,0,1-.677-.784,6.159,6.159,0,0,1-.427-.756,10.324,10.324,0,0,1-.588-1.485,13.834,13.834,0,0,1-.613-3.007.9.9,0,0,1,1.743-.4Z" transform="translate(-1441.358 -665.635)"/><path class="z" d="M1525.44,709.089l.4-.955,2.118-.528s.169.367-.72.528a.777.777,0,0,1,.149.764C1527.218,709.31,1525.418,709.724,1525.44,709.089Z" transform="translate(-1509.815 -696.416)"/><path class="aa" d="M1431.074,614.267c.081.047.715,2.285.183,3.223s-2.154-.113-2.594-1.469S1428.93,613,1431.074,614.267Z" transform="translate(-1423.177 -612.56)"/><path class="ab" d="M1381.076,604.594a2.615,2.615,0,0,0-.465.446c-.278.389-.266.92-.495,1.339-.242.443-.682.6-1.066.883a2,2,0,0,0-.776,1.2c-.1.524.168,1.039.1,1.528-.052.355-.439.539-.453.923a.877.877,0,0,0,.57.866c.207.078.457.089.6.257.173.2.094.517.195.764.3.73,1.064.24,1.549.115.559-.144,1.125.2,1.7.218a1.536,1.536,0,0,0,1.514-1.384c.014-.215-.019-.432.007-.647a1.359,1.359,0,0,1,.612-.894,1.436,1.436,0,0,0,.486-1.1c-.019-.824-.616-1.461-.895-2.2a1.177,1.177,0,0,1-.032-1.107,3.044,3.044,0,0,1,.98-.933,4,4,0,0,0,.809-.627,1.086,1.086,0,0,0,.293-.943c-.224-.914-1.912-1.466-2.738-1.329a1.937,1.937,0,0,0-1.427.933,12.4,12.4,0,0,1-.8,1.422A1.946,1.946,0,0,1,1381.076,604.594Z" transform="translate(-1377.917 -601.952)"/></g></g><g transform="translate(1395.14 217.679)"><path class="ac" d="M1989.1,979.049s.188,1.062.28,2.114a.724.724,0,0,1-.693.785c-1.4.058-4.4.172-5.47.124a.236.236,0,0,1-.207-.323h0a.527.527,0,0,1,.27-.284l4.947-2.274Z" transform="translate(-1972.6 -928.143)"/><path class="ad" d="M2028.528,971.5l-.15,1.27a1.577,1.577,0,0,1-1.459-.051l.359-1.416Z" transform="translate(-2011.872 -921.219)"/><path class="ae" d="M2029.294,747.627c.065.332.349,16.557-1.385,23.828a.247.247,0,0,0,.145.287,4.3,4.3,0,0,0,1.413.287.425.425,0,0,0,.421-.305,83.437,83.437,0,0,0,3.181-18.214c.346-9.022,0-.307,0-.307l-.2-5.577Z" transform="translate(-2012.752 -721.231)"/><path class="af" d="M2077.64,984.282a7.649,7.649,0,0,1,.587,1.961.441.441,0,0,1-.388.529c-.463.046-1.174.1-1.745.1a.441.441,0,0,1-.436-.492,3.713,3.713,0,0,1,.868-2.039Z" transform="translate(-2055.448 -932.822)"/><path class="ag" d="M2085.143,968.222l-.352,1.921a1.243,1.243,0,0,1-1.037.071l.168-2.067Z" transform="translate(-2062.688 -918.396)"/><path class="ah" d="M2046.7,744.753c1.418,8.56-.308,21.158-.89,23.623a.385.385,0,0,1-.311.292,2.584,2.584,0,0,1-1.11-.044.352.352,0,0,1-.253-.324c-.078-1.993.063-14.231-1.26-19.067a1.1,1.1,0,0,0-.423-.606l-2.566-1.824-.2-2.948Z" transform="translate(-2023.29 -717.859)"/><g transform="translate(1.812 4.09)"><path class="ai" d="M1968.716,593.318a39.955,39.955,0,0,1,8.941,1.116,64.023,64.023,0,0,1,.221,15.921,13.349,13.349,0,0,1-7-.528c-.547-3.09-3.1-11.787-3.1-11.787a14,14,0,0,1-5.2-1.649,9.118,9.118,0,0,0,1.8-3.768A14.259,14.259,0,0,0,1968.716,593.318Z" transform="translate(-1956.16 -586.734)"/><path class="aj" d="M1901.965,537.348a.813.813,0,0,1,.946-.266c.626,2.643,3.906,4.785,7.276,5.832a9.114,9.114,0,0,1-1.8,3.768A13.64,13.64,0,0,1,1901.965,537.348Z" transform="translate(-1901.965 -537.025)"/></g><g transform="translate(0 0)"><path class="ak" d="M1886.768,502.948c-.044.139.462.35.76-.218a5.36,5.36,0,0,0,.013-1.661,21.7,21.7,0,0,0-2.546-2.662.4.4,0,0,0-.05.555l.815.849a3.944,3.944,0,0,0-.476.941,1.142,1.142,0,0,0,.114.841c.143.258.338.593.523.855A1.127,1.127,0,0,0,1886.768,502.948Z" transform="translate(-1884.855 -498.408)"/><path class="al" d="M1895.384,516.869l.743.629.233.627-.662.734a8.539,8.539,0,0,0-.388-1.513C1895.144,517.078,1895.23,516.948,1895.384,516.869Z" transform="translate(-1894.122 -514.914)"/></g><path class="am" d="M2089.544,613.839l1.631-4.116s3.97,2.7,4.623,6.118a9.394,9.394,0,0,0-3.451.925C2092.052,615.151,2089.544,613.839,2089.544,613.839Z" transform="translate(-2067.865 -597.933)"/><path class="an" d="M2051.8,669.361s4.458,2.519,5.962.368a1.694,1.694,0,0,0,.31-1.314,9.4,9.4,0,0,1,3.451-.925,4.721,4.721,0,0,1-.513,3.236c-2.635,4.82-9.8-.266-9.8-.266Z" transform="translate(-2033.593 -649.582)"/><g transform="translate(7.738 13.764)"><path class="ao" d="M1968.919,637.564l-2.433-8.5a.247.247,0,0,0-.209-.179c-.441-.051-1.718-.2-3.193-.321a41.139,41.139,0,0,0-4.718-.191.478.478,0,0,0-.4.691,84.107,84.107,0,0,0,4.8,8.671.482.482,0,0,0,.392.193l5.525-.051A.249.249,0,0,0,1968.919,637.564Z" transform="translate(-1957.912 -628.362)"/><path class="ap" d="M2030.909,671.412a6.185,6.185,0,0,0,.2-1.888c-.136-.495-.4-1.13-1.284-.989a12.927,12.927,0,0,0-1.924.513.505.505,0,0,0,.723.436l-.416.322s.06.516.626.24l-.387.427a.451.451,0,0,0,.661.152C2029.527,670.354,2029.727,671.58,2030.909,671.412Z" transform="translate(-2020.49 -664.262)"/></g><path class="aq" d="M2037.932,566.6l1.352,3.911a.141.141,0,0,1-.064.17,3.179,3.179,0,0,1-3.3-.222.665.665,0,0,1-.306-.474l-.438-3.385Z" transform="translate(-2019.258 -559.379)"/><g transform="translate(14.42 1.567)"><path class="ar" d="M2022.313,532.4s-1.486,2.8-1.295,3.925,2.031,1.048,3.638.131l1.123-3.019Z" transform="translate(-2021.001 -530.368)"/><path class="as" d="M2029.239,517.814a.115.115,0,0,1-.05-.169,3.009,3.009,0,0,0,.413-.877s.267-.171-.68-.4-2.358-.578-2.655-1.384c-.289-.786.471-2.761,1.683-1.187a.115.115,0,0,0,.183,0,1.188,1.188,0,0,1,1.447-.47,1.089,1.089,0,0,1,.746,1.053.115.115,0,0,0,.136.117,1.329,1.329,0,0,1,1.552.723,1.069,1.069,0,0,1-.076,1.283.115.115,0,0,0,.049.191.692.692,0,0,1,.488.789c-.041.731-.857.666-1.09.633a.115.115,0,0,0-.1.036,3.932,3.932,0,0,1-2.071,1.271.116.116,0,0,1-.122-.154l.421-1.224a.115.115,0,0,0-.062-.143Z" transform="translate(-2025.655 -513.208)"/><path class="at" d="M2050.481,555.308s1.057-.726,1.135-.115-.952.885-1.462.657Z" transform="translate(-2047.066 -550.528)"/></g></g></g></g></svg>