<svg xmlns="http://www.w3.org/2000/svg" xmlns:xlink="http://www.w3.org/1999/xlink" width="45" height="45" viewBox="0 0 45 45"><defs><style>.a{stroke:#707070;}.a,.d{fill:url(#a);}.b{fill:none;opacity:0.1;}.c{clip-path:url(#b);}</style><linearGradient id="a" x1="0.5" x2="0.5" y2="1" gradientUnits="objectBoundingBox"><stop offset="0" stop-color="#96c5fc"/><stop offset="1" stop-color="#1a83f0"/></linearGradient><clipPath id="b"><rect class="a" width="32" height="32" transform="translate(221.951 345.951)"/></clipPath></defs><g transform="translate(-300 -335)"><circle class="b" cx="22.5" cy="22.5" r="22.5" transform="translate(300 335)"/><g class="c" transform="translate(85.049 -3.951)"><g transform="translate(222.071 346.021)"><path class="d" d="M9.336,29.779,3.7,24.428l-2.7,8.055ZM5.011,22.517,23.43,4.077l6.187,6.181L11.2,28.7ZM31.89,4.29,29.358,1.816a2.677,2.677,0,0,0-3.682,0l-.921.921,6.156,6.156.921-.921A2.522,2.522,0,0,0,31.89,4.29Z" transform="translate(-0.936 -0.852)"/><path class="d" d="M26.672,32.784a3.862,3.862,0,0,1-2.589-1.036L1.989,9.6A3.606,3.606,0,0,1,.953,7.008,3.474,3.474,0,0,1,1.989,4.477L4.463,2A3.578,3.578,0,0,1,9.584,2L31.678,24.1a3.606,3.606,0,0,1,1.036,2.589,3.862,3.862,0,0,1-1.036,2.589L29.2,31.749a3.832,3.832,0,0,1-2.532,1.036ZM6.995,2.635a1.748,1.748,0,0,0-1.323.575L3.2,5.685a1.873,1.873,0,0,0-.575,1.323A1.666,1.666,0,0,0,3.2,8.331L25.291,30.425a2.024,2.024,0,0,0,2.7,0l2.474-2.474a1.873,1.873,0,0,0,.575-1.323,1.666,1.666,0,0,0-.575-1.323L8.376,3.211a2.123,2.123,0,0,0-1.381-.575ZM31.1,28.584Z" transform="translate(-0.953 -0.924)"/><path class="d" d="M5.869,11.169a.9.9,0,0,1-.633-1.5L6.9,7.946a.834.834,0,0,1,1.208,0,.865.865,0,0,1,.23.633.865.865,0,0,1-.23.633L6.444,10.938a.667.667,0,0,1-.575.23Zm12.37,12.485a.9.9,0,0,1-.633-1.5l1.669-1.726a.834.834,0,0,1,1.208,0,.985.985,0,0,1,0,1.266l-1.669,1.726A.667.667,0,0,1,18.239,23.654Z" transform="translate(0.863 2.108)"/></g></g></g></svg>