<svg xmlns="http://www.w3.org/2000/svg" xmlns:xlink="http://www.w3.org/1999/xlink" width="45" height="45" viewBox="0 0 45 45"><defs><style>.a{fill:url(#a);}.b{opacity:0.12;fill:url(#b);}.c{clip-path:url(#c);}</style><linearGradient id="a" x1="0.5" x2="0.5" y2="1" gradientUnits="objectBoundingBox"><stop offset="0" stop-color="#ffc989"/><stop offset="1" stop-color="#ff9c09"/></linearGradient><linearGradient id="b" x1="0.5" x2="0.5" y2="1" gradientUnits="objectBoundingBox"><stop offset="0" stop-color="#fede6f"/><stop offset="1" stop-color="#fba051"/></linearGradient><clipPath id="c"><rect class="a" width="24" height="24" transform="translate(221 264)"/></clipPath></defs><g transform="translate(-210 -253)"><circle class="b" cx="22.5" cy="22.5" r="22.5" transform="translate(210 253)"/><g class="c"><path class="a" d="M26.285,9.143H22.857V5.714A1.619,1.619,0,0,0,21.143,4H10.857A1.718,1.718,0,0,0,9.143,5.714V9.143H5.714A1.717,1.717,0,0,0,4,10.857V26.285A1.619,1.619,0,0,0,5.714,28h20.57A1.717,1.717,0,0,0,28,26.285V10.857a1.619,1.619,0,0,0-1.715-1.714ZM16.124,25.879l-3.167-2.664,2.162-6.686h1.96l2.136,6.761-3.091,2.588ZM14.139,13.022V11.985h3.846v1.038l-.931,2.929H15.119l-.98-2.929ZM20.4,21.5h-.9l-1.363-3.9L20.4,20.624v.88Zm.747-12.361H10.857V5.714H21.143Z" transform="translate(217 260)"/></g></g></svg>