<svg xmlns="http://www.w3.org/2000/svg" xmlns:xlink="http://www.w3.org/1999/xlink" width="45" height="45" viewBox="0 0 45 45"><defs><style>.a{fill:none;opacity:0.1;}.b{fill:url(#a);}</style><linearGradient id="a" x1="0.5" x2="0.5" y2="1" gradientUnits="objectBoundingBox"><stop offset="0" stop-color="#abcafb"/><stop offset="1" stop-color="#248ffe"/></linearGradient></defs><g transform="translate(-300 -335)"><circle class="a" cx="22.5" cy="22.5" r="22.5" transform="translate(300 335)"/><g transform="translate(-8.556 -8.659)"><path class="b" d="M1.9,18.925l.059.032,1.16.943a.174.174,0,0,1,.025.24,1.072,1.072,0,0,0-.05,1.323l.122.147L15.069,28.1l.081.072a1.681,1.681,0,0,0,1.989.133l.17-.131.079-.072.018-.011,3.409-1.867a9.43,9.43,0,0,0,.912,1.6l-3.272,1.792a3.459,3.459,0,0,1-2.222.785,3.5,3.5,0,0,1-1.986-.606l-.237-.179L2.133,23.109l-.079-.072a2.918,2.918,0,0,1-.337-4.057.172.172,0,0,1,.179-.056ZM29.517,14.8a7.532,7.532,0,1,1-7.534,7.532A7.532,7.532,0,0,1,29.517,14.8Zm4.59,7.984H29.119v4.462h.763V26.81h3.462v.441h.763V22.789Zm-6.979-5.366h-.774v1.968H24.977v.742h1.376v2.441c-.425.161-.826.294-1.208.4l-.373.1.2.806c.292-.1.593-.2.9-.323l.473-.183v2.645a.38.38,0,0,1-.43.43c-.111,0-.262-.005-.452-.018l-.43-.025.161.753h.989a.807.807,0,0,0,.925-.749l.011-.2V23.036c.287-.134.556-.267.8-.4l.358-.194V21.66q-.367.205-.746.391l-.416.2V20.133H28.4v-.742H27.128V17.423Zm6.215,6.118v2.527H29.881V23.541ZM1.9,12.5l.059.03,1.16.943a.174.174,0,0,1,.025.24,1.072,1.072,0,0,0-.05,1.323l.122.147L15.07,21.678l.081.072a1.678,1.678,0,0,0,1.989.131l.17-.129.079-.072.018-.011,2.842-1.559a9.552,9.552,0,0,0-.262,2.228v.013l-1.536.842a3.459,3.459,0,0,1-2.222.783,3.5,3.5,0,0,1-1.986-.6l-.237-.179L2.131,16.685l-.079-.072a2.913,2.913,0,0,1-.333-4.059A.172.172,0,0,1,1.9,12.5Zm32.358,5.362H28.892V18.6H30.72a5.78,5.78,0,0,1-.645,1.85,4.311,4.311,0,0,1-1.147,1.143l-.315.211.462.613a5.491,5.491,0,0,0,1.677-1.645,6.5,6.5,0,0,0,.633-1.742l.09-.43H33.5a10.346,10.346,0,0,1-.194,2.366.7.7,0,0,1-.566.461l-.186.023-.86-.054.183.688q.645.043.839.043a1.263,1.263,0,0,0,1.183-.6,9.324,9.324,0,0,0,.353-3.235l0-.421ZM17.732,1.29l.194.158L29.8,7.8a2,2,0,0,1,.24,2.8l-.113.133-.127.122-1.875,1.025-10,5.473a2.6,2.6,0,0,1-3.2.158l-.2-.158L4.54,11.873,2.665,10.847a2.4,2.4,0,0,1-.242-.254,1.991,1.991,0,0,1,.072-2.626l.17-.17,11.87-6.346a2.6,2.6,0,0,1,3.2-.16Z" transform="translate(311.009 349.728)"/></g></g></svg>