<svg xmlns="http://www.w3.org/2000/svg" xmlns:xlink="http://www.w3.org/1999/xlink" width="45" height="45" viewBox="0 0 45 45"><defs><style>.a{stroke:#707070;}.a,.d{fill:url(#a);}.b{opacity:0.1;fill:url(#b);}.c{clip-path:url(#c);}</style><linearGradient id="a" x1="0.5" x2="0.5" y2="1" gradientUnits="objectBoundingBox"><stop offset="0" stop-color="#88b0ff"/><stop offset="1" stop-color="#379cff"/></linearGradient><linearGradient id="b" x1="0.5" x2="0.5" y2="1" gradientUnits="objectBoundingBox"><stop offset="0" stop-color="#77a6fb"/><stop offset="1" stop-color="#5488fa"/></linearGradient><clipPath id="c"><rect class="a" width="22" height="22" transform="translate(312 347)"/></clipPath></defs><g transform="translate(-300 -335)"><circle class="b" cx="22.5" cy="22.5" r="22.5" transform="translate(300 335)"/><g class="c" transform="translate(0 1)"><g transform="translate(307.696 342.696)"><path class="d" d="M6.7,15.3,4.3,15.3A2.391,2.391,0,1,0,6.7,12.913,2.391,2.391,0,0,0,4.3,15.3Z"/><path class="d" d="M15.3,15.3m-2.391,0A2.391,2.391,0,1,0,15.3,12.913,2.391,2.391,0,0,0,12.913,15.3Z"/><path class="d" d="M23.913,15.3m-2.391,0a2.391,2.391,0,1,0,2.391-2.391A2.391,2.391,0,0,0,21.522,15.3Z"/></g></g></g></svg>