<svg xmlns="http://www.w3.org/2000/svg" xmlns:xlink="http://www.w3.org/1999/xlink" width="45" height="45" viewBox="0 0 45 45"><defs><style>.a{stroke:#707070;}.a,.d{fill:url(#a);}.b{fill:none;opacity:0.1;}.c{clip-path:url(#b);}</style><linearGradient id="a" x1="0.5" x2="0.5" y2="1" gradientUnits="objectBoundingBox"><stop offset="0" stop-color="#e2f2ff"/><stop offset="1" stop-color="#17c8ff"/></linearGradient><clipPath id="b"><rect class="a" width="33" height="33" transform="translate(41.944 264.949)"/></clipPath></defs><g transform="translate(-30 -253)"><circle class="b" cx="22.5" cy="22.5" r="22.5" transform="translate(30 253)"/><g class="c" transform="translate(-4.944 -4.949)"><path class="d" d="M34.857,32.677h-.866V14.028A1.339,1.339,0,0,0,32.661,12.7h-6.5a.311.311,0,0,0-.317.317V32.655H24.424V5.39a1.875,1.875,0,0,0-1.859-1.859H7.149A1.875,1.875,0,0,0,5.29,5.39V32.677h-.8a1.183,1.183,0,0,0,0,2.365H34.878a1.181,1.181,0,0,0,1.183-1.183,1.2,1.2,0,0,0-1.2-1.183ZM11.267,11.072h7.2a1.056,1.056,0,0,1,0,2.112h-7.2a1.046,1.046,0,0,1-1.056-1.056A1.073,1.073,0,0,1,11.267,11.072Zm0,5.787h7.2a1.056,1.056,0,0,1,0,2.112h-7.2a1.046,1.046,0,0,1-1.056-1.056A1.059,1.059,0,0,1,11.267,16.858Zm0,5.829h7.2a1.056,1.056,0,1,1,0,2.112h-7.2a1.046,1.046,0,0,1-1.056-1.056A1.059,1.059,0,0,1,11.267,22.687Z" transform="translate(38.716 262.11)"/></g></g></svg>