<svg xmlns="http://www.w3.org/2000/svg" xmlns:xlink="http://www.w3.org/1999/xlink" width="45" height="45" viewBox="0 0 45 45"><defs><style>.a{stroke:#707070;}.a,.d{fill:url(#a);}.b{fill:none;opacity:0.1;}.c{clip-path:url(#b);}</style><linearGradient id="a" x1="0.5" x2="0.5" y2="1" gradientUnits="objectBoundingBox"><stop offset="0" stop-color="#f9e3c5"/><stop offset="1" stop-color="#fea41d"/></linearGradient><clipPath id="b"><rect class="a" width="33" height="33" transform="translate(221.88 346.354)"/></clipPath></defs><g transform="translate(-211 -335)"><circle class="b" cx="22.5" cy="22.5" r="22.5" transform="translate(211 335)"/><g class="c" transform="translate(-5.88 -6.354)"><path class="d" d="M23.645,1.794a1.2,1.2,0,0,1,2,1.341l-3.362,5.82H31.02a3.211,3.211,0,0,1,3.211,3.211V31.432a3.211,3.211,0,0,1-3.211,3.211H5.331A3.211,3.211,0,0,1,2.12,31.432V12.166A3.211,3.211,0,0,1,5.331,8.955H14.07l-3.36-5.82a1.2,1.2,0,0,1,2-1.341l.092.136,4.054,7.024H19.5L23.554,1.93ZM14.964,15.958a.8.8,0,0,0-.79.658l-.013.145V26.837a.8.8,0,0,0,1.069.758l.132-.059L24.18,22.5a.8.8,0,0,0,.119-1.312L24.18,21.1l-8.818-5.04a.8.8,0,0,0-.4-.1Z" transform="translate(220.526 344.551)"/></g></g></svg>