<svg xmlns="http://www.w3.org/2000/svg" xmlns:xlink="http://www.w3.org/1999/xlink" width="45" height="45" viewBox="0 0 45 45"><defs><style>.a{stroke:#707070;}.a,.d{fill:url(#a);}.b{fill:none;opacity:0.12;}.c{clip-path:url(#b);}</style><linearGradient id="a" x1="0.5" x2="0.5" y2="1.551" gradientUnits="objectBoundingBox"><stop offset="0" stop-color="#fbdcb2"/><stop offset="1" stop-color="#f38b15"/></linearGradient><clipPath id="b"><rect class="a" width="34" height="34" transform="translate(221.628 347.628)"/></clipPath></defs><g transform="translate(-30 -335)"><circle class="b" cx="22.5" cy="22.5" r="22.5" transform="translate(30 335)"/><g class="c" transform="translate(-185.628 -6.628)"><g transform="translate(222.005 348.005)"><path class="d" d="M24.347,10.389A10.187,10.187,0,0,0,14.374,0,10.187,10.187,0,0,0,4.4,10.389a10.187,10.187,0,0,0,9.974,10.389,10.187,10.187,0,0,0,9.974-10.389" transform="translate(2.249)"/><path class="d" d="M16.623,13.75C7.443,13.75,0,17.657,0,22.477a3.885,3.885,0,0,0,2.453,3.74H30.794a4.017,4.017,0,0,0,2.452-3.74C33.245,17.657,25.8,13.75,16.623,13.75Zm0,6.989-2.739-6.611H19.11Z" transform="translate(0 7.028)"/></g></g></g></svg>