<svg xmlns="http://www.w3.org/2000/svg" xmlns:xlink="http://www.w3.org/1999/xlink" width="45" height="45" viewBox="0 0 45 45"><defs><style>.a{stroke:#707070;}.a,.d{fill:url(#a);}.b{fill:none;opacity:0.1;}.c{clip-path:url(#b);}</style><linearGradient id="a" x1="0.5" x2="0.5" y2="1" gradientUnits="objectBoundingBox"><stop offset="0" stop-color="#b7d6fc"/><stop offset="1" stop-color="#3095fe"/></linearGradient><clipPath id="b"><rect class="a" width="33" height="33" transform="translate(311.715 264.715)"/></clipPath></defs><g transform="translate(-300 -253)"><circle class="b" cx="22.5" cy="22.5" r="22.5" transform="translate(300 253)"/><g class="c" transform="translate(-6.715 -6.715)"><path class="d" d="M26.053,0V10.174a.974.974,0,0,1-.978.946,1.076,1.076,0,0,1-.44-.1L22.58,9.994a1.076,1.076,0,0,0-.44-.1,1.021,1.021,0,0,0-.44.1l-2.054,1.027a1.076,1.076,0,0,1-.44.1.981.981,0,0,1-.978-.978V0H5.021A3.27,3.27,0,0,0,1.76,3.261V29.347a3.27,3.27,0,0,0,3.261,3.261H25.89a3.27,3.27,0,0,0,3.261-3.261V3.261A3.284,3.284,0,0,0,26.053,0ZM8.282,12.391H14.8A1.3,1.3,0,0,1,14.8,15H8.282a1.3,1.3,0,1,1,0-2.609ZM20.02,25.434H8.282a1.3,1.3,0,0,1,0-2.609H20.02a1.3,1.3,0,0,1,0,2.609Zm0-5.217H8.282a1.3,1.3,0,1,1,0-2.609H20.02a1.3,1.3,0,0,1,0,2.609Z" transform="translate(312.956 265.107)"/></g></g></svg>