<svg xmlns="http://www.w3.org/2000/svg" xmlns:xlink="http://www.w3.org/1999/xlink" width="45" height="45" viewBox="0 0 45 45"><defs><style>.a{fill:url(#a);}.b{fill:none;opacity:0.12;}.c{clip-path:url(#b);}</style><linearGradient id="a" x1="0.5" x2="0.5" y2="1" gradientUnits="objectBoundingBox"><stop offset="0" stop-color="#bbd8fe"/><stop offset="1" stop-color="#2a92ff"/></linearGradient><clipPath id="b"><rect class="a" width="33" height="33" transform="translate(221.944 264.944)"/></clipPath></defs><g transform="translate(-30 -335)"><circle class="b" cx="22.5" cy="22.5" r="22.5" transform="translate(30 335)"/><g class="c" transform="translate(-185.944 76.056)"><path class="a" d="M2.044,0H30.4a2.189,2.189,0,0,1,2.046,2.045v23.72A2.19,2.19,0,0,1,30.4,27.808H16.221V22.993a7.792,7.792,0,0,0-.036-.822q2.2-2.189,4.387-4.385a.9.9,0,1,0-1.261-1.3q-1.865,1.859-3.725,3.722A5.794,5.794,0,0,0,4.635,22.773q0,2.517,0,5.035H2.046A2.189,2.189,0,0,1,0,25.764V2.045A2.189,2.189,0,0,1,2.044,0M20.655,4.658a.9.9,0,0,0-.457,1.5.917.917,0,0,0,.693.285h7.423a.9.9,0,1,0,0-1.81H21.073a1.939,1.939,0,0,0-.417.023M9.939,6.978a4.635,4.635,0,1,0,3,.716,4.6,4.6,0,0,0-3-.716M20.655,9.292a.9.9,0,0,0,.2,1.787h7.461a.9.9,0,0,0,0-1.81H20.891a1.111,1.111,0,0,0-.235.023m0,4.635a.9.9,0,0,0-.455,1.5.916.916,0,0,0,.692.284h7.426a.9.9,0,0,0,0-1.81H20.893a1.091,1.091,0,0,0-.238.023Z" transform="translate(222.017 267.334)"/></g></g></svg>