<svg xmlns="http://www.w3.org/2000/svg" xmlns:xlink="http://www.w3.org/1999/xlink" width="45" height="45" viewBox="0 0 45 45"><defs><style>.a{stroke:#707070;}.a,.d{fill:url(#a);}.b{fill:none;opacity:0.1;}.c{clip-path:url(#b);}</style><linearGradient id="a" x1="0.5" y1="-0.33" x2="0.5" y2="1" gradientUnits="objectBoundingBox"><stop offset="0" stop-color="#e2ecfc"/><stop offset="1" stop-color="#2590ff"/></linearGradient><clipPath id="b"><rect class="a" width="33" height="33" transform="translate(132 265)"/></clipPath></defs><g transform="translate(-120 -253)"><path class="b" d="M22.5,0A22.5,22.5,0,1,1,0,22.5,22.5,22.5,0,0,1,22.5,0Z" transform="translate(120 253)"/><g class="c" transform="translate(-6 -6)"><g transform="translate(132 266.08)"><path class="d" d="M24.406,20.528a6.561,6.561,0,0,0,2.67-5.28,6.393,6.393,0,1,0-12.774,0,6.513,6.513,0,0,0,2.682,5.28A10.775,10.775,0,0,0,11.1,29.363c0,.611.311,1.089.9,1.089H29.339c.587,0,.9-.479.9-1.089a10.847,10.847,0,0,0-5.843-8.835Zm0,0" transform="translate(2.763 0.388)"/><path class="d" d="M18.625,22.954a9.039,9.039,0,0,1-1.9-6.848,8.572,8.572,0,0,1,3.34-5.6,8.669,8.669,0,0,1,7.89-1.042c2.335.886,2.394,1.832,2.67,1.832a1.066,1.066,0,0,0,1.054-1.078V8.4A5.579,5.579,0,0,0,26.347,2.6H7.192A5.579,5.579,0,0,0,1.864,8.4v18.82A5.579,5.579,0,0,0,7.192,33.01h4.25a.958.958,0,0,0,1.078-.934,6.345,6.345,0,0,1,.635-2.394,14.8,14.8,0,0,1,2.287-3.723,15.085,15.085,0,0,1,3.185-3Zm-9.3-15.7h7.746a.754.754,0,0,1,.73.67.85.85,0,0,1-.718.994h-7.7a.742.742,0,0,1-.826-.778.79.79,0,0,1,.766-.838V7.258ZM6.4,7.055a1.054,1.054,0,0,1,.922.515,1.042,1.042,0,0,1,0,1.054,1.054,1.054,0,0,1-.922.515,1.042,1.042,0,0,1,0-2.083Zm6.07,15.169H6.09a.934.934,0,1,1,0-1.856h6.381a.934.934,0,1,1,0,1.856Zm2.143-5.256H6.09c-.6,0-1.077-.323-1.054-.934A.946.946,0,0,1,6.09,15.1h8.524a.958.958,0,0,1,1.054.934.934.934,0,0,1-1.054.934Zm0,0" transform="translate(-1.859 -2.601)"/></g></g></g></svg>