<svg xmlns="http://www.w3.org/2000/svg" xmlns:xlink="http://www.w3.org/1999/xlink" width="45" height="45" viewBox="0 0 45 45"><defs><style>.a{stroke:#707070;}.a,.c{fill:url(#a);}.b{clip-path:url(#b);}</style><linearGradient id="a" x1="0.5" x2="0.5" y2="1" gradientUnits="objectBoundingBox"><stop offset="0" stop-color="#8debc7"/><stop offset="1" stop-color="#43c8b0"/></linearGradient><clipPath id="b"><rect class="a" width="45" height="45" transform="translate(35 104)"/></clipPath></defs><g class="b" transform="translate(-35 -104)"><path class="c" d="M36.926,22.089v9.971a3.333,3.333,0,0,1-3.333,3.333H6.932A3.333,3.333,0,0,1,3.6,32.061V22.09A41.219,41.219,0,0,0,20.263,25.4a41.236,41.236,0,0,0,16.663-3.306ZM29.428,5.4a2.5,2.5,0,0,1,2.5,2.5v3.329h1.666a3.333,3.333,0,0,1,3.333,3.333v4.991A40.34,40.34,0,0,1,20.263,22.9,40.374,40.374,0,0,1,3.6,19.552l0-4.991a3.333,3.333,0,0,1,3.333-3.333H8.6V7.9a2.5,2.5,0,0,1,2.259-2.488L11.1,5.4Zm-7.5,10.831H18.6a1.666,1.666,0,0,0-.195,3.321l.195.012h3.333a1.666,1.666,0,1,0,0-3.333Zm6.665-7.5H11.931v2.5H28.594v-2.5Z" transform="translate(37.738 106.603)"/></g></svg>