<svg xmlns="http://www.w3.org/2000/svg" xmlns:xlink="http://www.w3.org/1999/xlink" width="45" height="45" viewBox="0 0 45 45"><defs><style>.a{stroke:#707070;fill:url(#a);}.b{fill:none;opacity:0.1;}.c{opacity:0.8;clip-path:url(#b);}.d{fill:#dae9ff;}.e{fill:url(#c);}.f{fill:#fff;}</style><linearGradient id="a" x1="0.5" x2="0.5" y2="1" gradientUnits="objectBoundingBox"><stop offset="0" stop-color="#b2eed6"/><stop offset="1" stop-color="#1bbfa3"/></linearGradient><clipPath id="b"><rect class="a" width="34" height="34" transform="translate(131 346.319)"/></clipPath><linearGradient id="c" x1="0.5" x2="0.5" y2="1" gradientUnits="objectBoundingBox"><stop offset="0" stop-color="#74e8bb"/><stop offset="1" stop-color="#22c2a5"/></linearGradient></defs><g transform="translate(-120 -335)"><circle class="b" cx="22.5" cy="22.5" r="22.5" transform="translate(120 335)"/><g class="c" transform="translate(-6 -4.319)"><g transform="translate(132.125 345.917)"><path class="d" d="M17.476,1.846a131.354,131.354,0,0,1-13.893,3.9,1.2,1.2,0,0,0-.86,1.058v12.7A15.155,15.155,0,0,0,4.774,25.6c1.058,1.919,3.308,3.44,5.094,4.9A26.624,26.624,0,0,0,18.2,34.66a27.752,27.752,0,0,0,8.2-3.639C34.28,25.6,34.28,19.576,34.28,19.444V5.882a1.057,1.057,0,0,0-.86-.992A109.856,109.856,0,0,1,18.931,1.912c-.265-.132-1.191.066-1.455-.066Z" transform="translate(-2.128 -1.846)"/><path class="e" d="M17.59,1.846A85.714,85.714,0,0,1,3.168,5.22a1.2,1.2,0,0,0-.86,1.058v12.7a15.155,15.155,0,0,0,2.051,6.086c1.058,1.919,3.308,3.639,5.094,5.094a23.928,23.928,0,0,0,7.939,4.234l.265.066.265-.066a24.6,24.6,0,0,0,7.939-4.234c1.786-1.455,3.969-3.175,5.094-5.094A15.287,15.287,0,0,0,33,18.914V6.212a1.2,1.2,0,0,0-.86-1.058A100.43,100.43,0,0,1,17.59,1.846Z" transform="translate(-2.308 -1.846)"/><path class="f" d="M10.5,11.61V23.254q0,1.191-.992,1.191c-.4,0-.728-.066-.86-.265a1.542,1.542,0,0,1-.265-.926V15.844a1.76,1.76,0,0,1-.992.794,1.042,1.042,0,0,1-.86-.265A1.023,1.023,0,0,1,6,15.58a2.327,2.327,0,0,1,.6-1.257,14.982,14.982,0,0,0,1.852-3.308A28.265,28.265,0,0,0,9.639,7.443,3.021,3.021,0,0,1,10.1,6.318a.967.967,0,0,1,.992-.265c.463.066.728.265.794.529a2.468,2.468,0,0,1-.132,1.323q-.3,1.092-.6,1.985c-.2.6-.463,1.191-.662,1.72ZM25.119,22.2a3.9,3.9,0,0,1-.265.529.935.935,0,0,1-.926.4A2.919,2.919,0,0,1,22.8,22.46a22.463,22.463,0,0,1-2.183-1.919,20.849,20.849,0,0,1-1.588-1.985v4.829c0,.4-.066.728-.265.86a.966.966,0,0,1-.794.265,1.123,1.123,0,0,1-.86-.265,1.143,1.143,0,0,1-.331-.86V19.351a13.229,13.229,0,0,1-1.257,1.455,15.067,15.067,0,0,1-1.786,1.522,3.278,3.278,0,0,1-1.455.728.889.889,0,0,1-.926-.4,3.8,3.8,0,0,1-.265-.463.565.565,0,0,1,0-.463,1.17,1.17,0,0,1,.331-.529,2.334,2.334,0,0,1,.728-.6q.3-.2.794-.6c.331-.265.6-.529.926-.794l.992-.992a7.615,7.615,0,0,0,.926-1.125H12.549a1.293,1.293,0,0,1-.926-.265,1.055,1.055,0,0,1-.265-.794c0-.4.066-.662.265-.794a1.2,1.2,0,0,1,.926-.265h4.168V13.6H14.6a1.91,1.91,0,0,1-1.522-.529,2.458,2.458,0,0,1-.4-1.522V8.832a2.458,2.458,0,0,1,.4-1.522A1.908,1.908,0,0,1,14.6,6.847h6.748A1.837,1.837,0,0,1,22.8,7.31,2.544,2.544,0,0,1,23.2,8.9V11.61a2.458,2.458,0,0,1-.4,1.522,1.91,1.91,0,0,1-1.522.529H18.9v1.389h4.962c.4,0,.728.066.86.265a1.419,1.419,0,0,1,.265.794,1.055,1.055,0,0,1-.265.794,1.123,1.123,0,0,1-.86.265H20.29c.662.794,1.323,1.455,1.919,2.051a13.19,13.19,0,0,0,1.72,1.389,2.41,2.41,0,0,1,.728.662,1.66,1.66,0,0,1,.331.529c.2.066.2.2.132.4ZM20.885,11.081a1.321,1.321,0,0,0,.132-.6v-.86a1.321,1.321,0,0,0-.132-.6.855.855,0,0,0-.529-.132h-4.7a.855.855,0,0,0-.529.132A.633.633,0,0,0,15,9.493v1.059a1.321,1.321,0,0,0,.132.6c.132.132.265.132.529.132H20.29q.5,0,.6-.2Z" transform="translate(-0.708 -0.033)"/></g></g></g></svg>