<svg xmlns="http://www.w3.org/2000/svg" xmlns:xlink="http://www.w3.org/1999/xlink" width="62" height="62" viewBox="0 0 62 62"><defs><style>.a{fill:#fff;stroke:#ebebeb;}.b{clip-path:url(#a);}.c,.d{fill:#10abff;}.c{opacity:0.4;}.e{stroke:none;}.f{fill:none;}</style><clipPath id="a"><rect class="a" width="44" height="44" transform="translate(16 134)"/></clipPath></defs><g transform="translate(-16 -134)"><g class="a" transform="translate(16 134)"><rect class="e" width="62" height="62"/><rect class="f" x="0.5" y="0.5" width="61" height="61"/></g><g class="b" transform="translate(9 9)"><g transform="translate(16 135.177)"><path class="c" d="M47.161,45.048H35.386V4.89L48.152,9.848A2.628,2.628,0,0,1,49.639,12.2V42.569a2.486,2.486,0,0,1-2.479,2.479Zm-22.186,0H17.29V18.772l8.428,3.223a1.611,1.611,0,0,1,.992,1.487V43.313a1.773,1.773,0,0,1-1.735,1.735Z" transform="translate(-6.507 -4.147)"/><path class="d" d="M43.989,8.8,31.222,3.842h-.372a.455.455,0,0,0-.372.124h-.124L17.093,12.642a3.267,3.267,0,0,0-1.983,3.1v2.6L13.127,17.6h-.372a.455.455,0,0,0-.372.124h-.124l-8.676,5.7A2.448,2.448,0,0,0,2.1,25.656V44.62a.847.847,0,0,0,.868.868.847.847,0,0,0,.868-.868V25.78a.837.837,0,0,1,.5-.744.121.121,0,0,0,.124-.124l7.437-4.958V44.62a.847.847,0,0,0,.868.868h7.685a2.486,2.486,0,0,0,2.479-2.479V23.178a2.542,2.542,0,0,0-1.611-2.355L16.6,18.963V15.617a1.611,1.611,0,0,1,.992-1.487.121.121,0,0,0,.124-.124L29.735,6.073V44.62a.847.847,0,0,0,.868.868H42.749A3.333,3.333,0,0,0,46.1,42.141V11.9a3.377,3.377,0,0,0-2.107-3.1ZM21.307,23.177V43.008a.8.8,0,0,1-.744.744H13.746V19.707l1.983.744,5.206,1.983a.883.883,0,0,1,.372.744ZM44.361,42.265a1.641,1.641,0,0,1-1.611,1.611H31.842V5.825l11.527,4.462a1.611,1.611,0,0,1,.992,1.487v30.49Z" transform="translate(-2.096 -3.842)"/></g></g></g></svg>