<svg xmlns="http://www.w3.org/2000/svg" xmlns:xlink="http://www.w3.org/1999/xlink" width="32" height="32" viewBox="0 0 32 32"><defs><style>.a{stroke:#707070;}.a,.c{fill:url(#a);}.b{clip-path:url(#b);}</style><linearGradient id="a" x1="0.5" x2="0.5" y2="1" gradientUnits="objectBoundingBox"><stop offset="0" stop-color="#1f8fff"/><stop offset="1" stop-color="#a1c4fe"/></linearGradient><clipPath id="b"><rect class="a" width="32" height="32" transform="translate(43 315)"/></clipPath></defs><g class="b" transform="translate(-43 -315)"><g transform="translate(41.972 313.972)"><path class="c" d="M16.523,8.009m-6.874,0a6.874,6.874,0,1,0,6.874-6.874A6.874,6.874,0,0,0,9.649,8.009Z"/><path class="c" d="M15.49,29.225a10.29,10.29,0,0,1,9.467-10.256A15.548,15.548,0,0,0,1.033,30.7a1.233,1.233,0,0,0,1.232,1.328H15.881a10.421,10.421,0,0,1-.392-2.8Z"/><path class="c" d="M31.887,26.314H19.559a1.135,1.135,0,1,1,0-2.27h9.763l-.528-.585a1.137,1.137,0,1,1,1.68-1.533l2.259,2.48a1.143,1.143,0,0,1,.2,1.226,1.129,1.129,0,0,1-1.044.681ZM21.818,32.921a1.137,1.137,0,0,1-.84-.369l-2.259-2.486a1.143,1.143,0,0,1-.2-1.226,1.131,1.131,0,0,1,1.039-.675H31.893a1.135,1.135,0,0,1,0,2.27H22.131l.528.585a1.135,1.135,0,0,1-.84,1.9Z"/></g></g></svg>