<svg xmlns="http://www.w3.org/2000/svg" xmlns:xlink="http://www.w3.org/1999/xlink" width="32" height="32" viewBox="0 0 32 32"><defs><style>.a{stroke:#707070;}.a,.c{fill:url(#a);}.b{clip-path:url(#b);}</style><linearGradient id="a" x1="0.5" x2="0.5" y2="1" gradientUnits="objectBoundingBox"><stop offset="0" stop-color="#f09e3d"/><stop offset="1" stop-color="#f4be74"/></linearGradient><clipPath id="b"><rect class="a" width="32" height="32" transform="translate(172 315)"/></clipPath></defs><g class="b" transform="translate(-172 -315)"><path class="c" d="M18.246,3.646a1.242,1.242,0,0,1,1.922.019c1.3,1.625,5.7,3.685,11.542,4.389A1.235,1.235,0,0,1,32.8,9.278V23.251a6.263,6.263,0,0,1-.753,2.977c-3.479,6.44-8.281,8.972-12.865,8.972l-.245,0c-4.461-.128-9.172-2.653-12.584-8.967a6.293,6.293,0,0,1-.747-2.7L5.6,23.251V9.278A1.235,1.235,0,0,1,6.69,8.054c5.716-.689,10.09-2.71,11.446-4.275Zm-.376,9.608H13.292V26.229h1.442V14.619h1.7A37.617,37.617,0,0,1,15,18.528a5.63,5.63,0,0,1,1.384,3.27.627.627,0,0,1-.154.48,1.4,1.4,0,0,1-.664.174,4.3,4.3,0,0,1-.763-.087l.466,1.512a3.262,3.262,0,0,0,2.133-.582,2.158,2.158,0,0,0,.424-1.5,8.194,8.194,0,0,0-1.384-3.5q.784-1.928,1.426-3.909V13.254Zm5.848,5.58A35.429,35.429,0,0,1,22.25,24.37H17.277v1.453h8.5V24.37H23.69a32.929,32.929,0,0,0,1.47-5.13l-1.442-.406Zm-4.563.421L17.9,19.69a30.9,30.9,0,0,1,1.2,4.127l1.272-.32a35.851,35.851,0,0,0-1.215-4.243Zm2.246-.523-1.257.436a33.2,33.2,0,0,1,1.045,3.982l1.258-.334A34.909,34.909,0,0,0,21.4,18.731Zm.792-5.958h-1.3a11.831,11.831,0,0,1-3.8,4.722l.749,1.192a11.846,11.846,0,0,0,1.47-1.25v.77h4.52v-.726A12.68,12.68,0,0,0,25.287,18.7l.8-1.264a11.146,11.146,0,0,1-3.9-4.664Zm-.65,1.482a10.482,10.482,0,0,0,1.681,2.586H19.848a13.891,13.891,0,0,0,1.7-2.586Z" transform="translate(168.8 311.8)"/></g></svg>