<svg xmlns="http://www.w3.org/2000/svg" xmlns:xlink="http://www.w3.org/1999/xlink" width="32" height="32" viewBox="0 0 32 32"><defs><style>.a{stroke:#707070;}.a,.c{fill:url(#a);}.b{clip-path:url(#b);}</style><linearGradient id="a" x1="0.5" x2="0.5" y2="1" gradientUnits="objectBoundingBox"><stop offset="0" stop-color="#8b75f8"/><stop offset="1" stop-color="#a188f5"/></linearGradient><clipPath id="b"><rect class="a" width="32" height="32" transform="translate(300 315)"/></clipPath></defs><g class="b" transform="translate(-300 -315)"><path class="c" d="M25.986,31.429a6.565,6.565,0,0,0,6.909,0V36l-3.139-1.658a.582.582,0,0,0-.534,0L25.981,36V31.429h0ZM30.4,4A1.6,1.6,0,0,1,32,5.6V16.8H27.2a6.4,6.4,0,0,0-6.392,6.08l-.008.32V34.4H8a1.6,1.6,0,0,1-1.6-1.6V5.6A1.6,1.6,0,0,1,8,4H30.4Zm-.96,16a5.715,5.715,0,1,1-5.76,5.715A5.734,5.734,0,0,1,29.44,20Zm0,2.283-1.221,1.763-2.064.608,1.317,1.7-.058,2.138,2.026-.714,2.032.714-.058-2.138,1.317-1.7-2.07-.608ZM18.4,15.2H12a.8.8,0,0,0-.787.656L11.2,16v.8a.8.8,0,0,0,.656.787L12,17.6h6.4a.8.8,0,0,0,.787-.656L19.2,16.8V16a.8.8,0,0,0-.8-.8Zm4.8-6.4H12a.8.8,0,0,0-.787.656L11.2,9.6v.8a.8.8,0,0,0,.656.787L12,11.2H23.2a.8.8,0,0,0,.787-.656L24,10.4V9.6a.8.8,0,0,0-.8-.8Z" transform="translate(295.2 311)"/></g></svg>