<svg xmlns="http://www.w3.org/2000/svg" xmlns:xlink="http://www.w3.org/1999/xlink" width="32" height="32" viewBox="0 0 32 32"><defs><style>.a,.d{fill:#fff;}.a{stroke:#707070;}.b{clip-path:url(#a);}.c{fill:url(#b);}</style><clipPath id="a"><rect class="a" width="32" height="32" transform="translate(172 391)"/></clipPath><linearGradient id="b" x1="0.5" x2="0.5" y2="1" gradientUnits="objectBoundingBox"><stop offset="0" stop-color="#f09f3f"/><stop offset="1" stop-color="#f3bc72"/></linearGradient></defs><g class="b" transform="translate(-172 -391)"><g transform="translate(172 391)"><path class="c" d="M16,16,0,16A16,16,0,1,0,16,0,16,16,0,0,0,0,16Z"/><path class="d" d="M15.976,11.726a2.675,2.675,0,0,0,2.646-2.732,2.647,2.647,0,1,0-5.292,0A2.675,2.675,0,0,0,15.976,11.726Zm4.686,2.3a2.873,2.873,0,0,0-2.908-1.6h-3.99c-2-.132-2.776,1.04-2.906,1.56,0,0-1.346,4.252-1.086,5.25.13.608,1.216,1.344,2.344,1.908l-1.52,4.6h10.63L19.75,20.968c1-.52,1.91-1.216,2.04-1.78.216-.91-1.128-5.16-1.128-5.16ZM14.2,18.754a1.386,1.386,0,0,1-.608.13,1.518,1.518,0,1,1,1.52-1.56,1.574,1.574,0,0,1,.736-.3,1.667,1.667,0,0,1,.52,0,24.645,24.645,0,0,1,3.21,1.214,4.452,4.452,0,0,1-3.34,1.476h-.174a2.087,2.087,0,0,1-.52-.044c-1.04-.174-1.344-.564-1.344-.912Z"/></g></g></svg>