<svg xmlns="http://www.w3.org/2000/svg" xmlns:xlink="http://www.w3.org/1999/xlink" width="32" height="32" viewBox="0 0 32 32"><defs><style>.a{stroke:#707070;}.a,.c{fill:url(#a);}.b{clip-path:url(#b);}</style><linearGradient id="a" x1="0.5" x2="0.5" y2="1" gradientUnits="objectBoundingBox"><stop offset="0" stop-color="#0f7be9"/><stop offset="1" stop-color="#74a7f6"/></linearGradient><clipPath id="b"><rect class="a" width="32" height="32" transform="translate(300 391)"/></clipPath></defs><g class="b" transform="translate(-300 -391)"><path class="c" d="M27.98,29.986H20.616l-2.5,2.194H27.98a2.2,2.2,0,0,0,2.195-2.194V12.072l-2.195,0Zm0-17.916,2.195,0v-.655l-2.195.042Zm0-11.888L6.015.181a2.2,2.2,0,0,0-2.194,2.2V22.789l2.194-1.24V2.377H27.98V11.46l2.195-.042V2.377A2.194,2.194,0,0,0,27.98.183ZM18.591,26.24c-.318-.672-.318-1.5-1.274-2.12s-2.54-.786-2.921-1.138c-.672-.619-.6-.688-.6-.688s1.185.637,1.451.377a8.132,8.132,0,0,0,1.964-4.085,9.513,9.513,0,0,0,.221-2.606c-.042.373-.336.637-.966.716-1.418.177-8.864-.039-9.044-.435a2.622,2.622,0,0,0,.121.309,15.514,15.514,0,0,0,1.222,2.017s.69,2.379.372,2.844a11.251,11.251,0,0,1-2.018,1.5S3.824,24.792,3.4,25.619a19.572,19.572,0,0,0-1.115,5.223c.159.413,3.577,1.276,6.074,1.328a29.456,29.456,0,0,0,7.79-1.225,9.3,9.3,0,0,0,2.763-1.707A5.545,5.545,0,0,0,18.591,26.24ZM16.484,15.586a.863.863,0,0,0,.749-.828,2.986,2.986,0,0,0-.288-.721,4.1,4.1,0,0,0,.531-.517,2.172,2.172,0,0,0,.372-.828s-3.919-2.318-6.534-1.86c-1.486.259-1.558.948-1.558.948a2.615,2.615,0,0,0-2.62,2.31c0,.3.014.619.046.941C7.195,15.031,14.543,15.876,16.484,15.586Zm3.48-7.934h5.871V9.037H19.964V7.652Zm.161,3.135h5.71v1.385h-5.71ZM20.1,13.92h5.847v1.385H20.1Zm-.084,3.014h5.823V18.32H20.012V16.935Zm-.121,3.5h5.944v1.386H19.891Z" transform="translate(299.781 390.819)"/></g></svg>