<svg xmlns="http://www.w3.org/2000/svg" xmlns:xlink="http://www.w3.org/1999/xlink" width="32" height="32" viewBox="0 0 32 32"><defs><style>.a{stroke:#707070;}.a,.c{fill:url(#a);}.b{clip-path:url(#b);}</style><linearGradient id="a" x1="0.5" x2="0.5" y2="1" gradientUnits="objectBoundingBox"><stop offset="0" stop-color="#755afb"/><stop offset="1" stop-color="#a087f6"/></linearGradient><clipPath id="b"><rect class="a" width="32" height="32" transform="translate(300 315)"/></clipPath></defs><g class="b" transform="translate(-300 -315)"><g transform="translate(297.472 312.474)"><path class="c" d="M16.9,2.624A13.693,13.693,0,0,1,31.2,21.44a2.477,2.477,0,0,1,2.649,2.388v8.287a2.482,2.482,0,0,1-3.568,2.16,2.511,2.511,0,0,1-.934-.785q-6.416-.005-12.828,0A20.409,20.409,0,0,1,8.721,32.1a12.883,12.883,0,0,1-2.75-1.494A7.751,7.751,0,0,1,4.085,28.7a5.228,5.228,0,0,1-.735-1.632,4.815,4.815,0,0,1-.083-1.889,3.171,3.171,0,0,1,.517-1.361,2.59,2.59,0,0,1,1.4-1,3.988,3.988,0,0,1,1.292-.148A13.682,13.682,0,0,1,16.9,2.624M14.536,9.141a.858.858,0,0,0,.018.955,4.534,4.534,0,0,0,.362.384c.832.829,1.657,1.661,2.493,2.49-1.093,0-2.189,0-3.282,0a.856.856,0,0,0,0,1.712h3.561v1.473H14.3a1.129,1.129,0,0,0-.557.094.857.857,0,0,0,.326,1.618h3.615V20.6a.856.856,0,0,0,1.694.177,1.676,1.676,0,0,0,.018-.329V17.865h3.586a.837.837,0,0,0,.713-.434.88.88,0,0,0-.018-.876.857.857,0,0,0-.47-.365,1.428,1.428,0,0,0-.463-.04H19.4V14.677h3.553a.857.857,0,0,0,.72-1.321.855.855,0,0,0-.691-.391h-3.3q1.39-1.379,2.772-2.772a.858.858,0,0,0-.937-1.39,1.222,1.222,0,0,0-.427.329l-2.54,2.54L15.882,9.007a.854.854,0,0,0-.463-.246.871.871,0,0,0-.883.38M18.187,23.76a2.676,2.676,0,0,0-1.02.337,1.719,1.719,0,0,0-.778.9,19.581,19.581,0,0,0,4.169.047.856.856,0,0,1,.782.355.865.865,0,0,1,.04.93.849.849,0,0,1-.644.416,19.622,19.622,0,0,1-3.293.054,30.032,30.032,0,0,1-4.14-.561A38.7,38.7,0,0,1,9.311,25.2c-.413-.134-.825-.264-1.219-.434a5.19,5.19,0,0,0-1.954-.394,1.219,1.219,0,0,0-.908.358,1.774,1.774,0,0,0-.3,1,3.124,3.124,0,0,0,.445,1.777,6.05,6.05,0,0,0,1.9,1.9,12.4,12.4,0,0,0,2.779,1.346,18.959,18.959,0,0,0,6.163,1H28.887c0-2.229,0-4.458,0-6.684a2.753,2.753,0,0,0-.6-.373,9.878,9.878,0,0,0-2.493-.778A21.552,21.552,0,0,0,22.28,23.6c-1.364-.014-2.732.043-4.093.163Z"/><path class="c" d="M16.906,2.638a13.678,13.678,0,0,1,14.275,18.8,2.477,2.477,0,0,1,2.649,2.388V32.1a2.48,2.48,0,0,1-3.564,2.157,2.511,2.511,0,0,1-.934-.785q-6.4-.005-12.814,0a20.421,20.421,0,0,1-7.784-1.382,12.971,12.971,0,0,1-2.75-1.494A7.8,7.8,0,0,1,4.1,28.685a5.237,5.237,0,0,1-.731-1.628,4.8,4.8,0,0,1-.083-1.885A3.231,3.231,0,0,1,3.8,23.811a2.582,2.582,0,0,1,1.4-1,3.889,3.889,0,0,1,1.292-.145A13.7,13.7,0,0,1,6.872,9.1a13.758,13.758,0,0,1,4.158-4.3,13.478,13.478,0,0,1,5.877-2.157M14.54,9.148a.858.858,0,0,0,.018.955,4.534,4.534,0,0,0,.362.384c.829.829,1.657,1.661,2.49,2.486-1.093,0-2.186,0-3.278,0a.842.842,0,0,0-.651.311.858.858,0,0,0,.651,1.4h3.561v1.473H14.315a1.129,1.129,0,0,0-.557.094.857.857,0,0,0,.326,1.618H17.7V20.6a.856.856,0,0,0,1.694.177,1.676,1.676,0,0,0,.018-.329V17.865h3.582a.842.842,0,0,0,.713-.434.873.873,0,0,0-.018-.872.851.851,0,0,0-.47-.362,1.42,1.42,0,0,0-.463-.04H19.41V14.684h3.55a.857.857,0,0,0,.72-1.321.85.85,0,0,0-.691-.391h-3.3c.926-.919,1.845-1.845,2.768-2.768a.858.858,0,0,0-.937-1.39,1.181,1.181,0,0,0-.427.329q-1.27,1.27-2.537,2.537-1.335-1.33-2.663-2.663a.854.854,0,0,0-.463-.246.875.875,0,0,0-.89.376m3.648,14.608a2.676,2.676,0,0,0-1.02.337,1.719,1.719,0,0,0-.778.9,19.547,19.547,0,0,0,4.165.047.856.856,0,0,1,.782.355.865.865,0,0,1,.04.93.849.849,0,0,1-.644.416,19.585,19.585,0,0,1-3.289.054,30.048,30.048,0,0,1-4.136-.557,38.861,38.861,0,0,1-3.988-1.035c-.409-.134-.821-.264-1.219-.434a5.172,5.172,0,0,0-1.95-.394,1.219,1.219,0,0,0-.908.358,1.74,1.74,0,0,0-.3,1,3.139,3.139,0,0,0,.445,1.777,6.065,6.065,0,0,0,1.9,1.9,12.3,12.3,0,0,0,2.775,1.346,18.928,18.928,0,0,0,6.155,1H28.877c0-2.225,0-4.451,0-6.676a2.753,2.753,0,0,0-.6-.373,9.7,9.7,0,0,0-2.49-.774,21.547,21.547,0,0,0-3.51-.333,37.641,37.641,0,0,0-4.089.156Z"/><path class="c" d="M16.906,2.656A13.667,13.667,0,0,1,31.167,21.44a2.471,2.471,0,0,1,2.642,2.388V32.1a2.48,2.48,0,0,1-4.494,1.371q-6.4-.005-12.8,0a20.315,20.315,0,0,1-7.776-1.382,12.713,12.713,0,0,1-2.747-1.494,7.722,7.722,0,0,1-1.882-1.907,5.246,5.246,0,0,1-.731-1.628,4.8,4.8,0,0,1-.083-1.885,3.231,3.231,0,0,1,.514-1.361,2.587,2.587,0,0,1,1.393-1,3.964,3.964,0,0,1,1.288-.145A13.657,13.657,0,0,1,16.906,2.656m-2.363,6.5a.859.859,0,0,0,.018.955,4.534,4.534,0,0,0,.362.384c.829.829,1.654,1.657,2.486,2.482-1.093,0-2.186,0-3.278,0a.842.842,0,0,0-.651.311.858.858,0,0,0,.651,1.4h3.557v1.469H14.315a1.129,1.129,0,0,0-.557.094.857.857,0,0,0,.322,1.618h3.608V20.6a.86.86,0,0,0,.2.546.87.87,0,0,0,.923.264.859.859,0,0,0,.572-.633,1.676,1.676,0,0,0,.018-.329V17.869h3.579a.842.842,0,0,0,.713-.434.873.873,0,0,0-.018-.872.838.838,0,0,0-.47-.362,1.42,1.42,0,0,0-.463-.04H19.4V14.692h3.546a.855.855,0,0,0,.72-1.317.85.85,0,0,0-.691-.391h-3.3c.926-.919,1.845-1.842,2.768-2.765a.857.857,0,0,0-.934-1.39,1.139,1.139,0,0,0-.423.329q-1.27,1.265-2.537,2.533-1.33-1.33-2.663-2.663a.854.854,0,0,0-.463-.246.863.863,0,0,0-.883.376m3.644,14.59a2.7,2.7,0,0,0-1.02.337,1.719,1.719,0,0,0-.778.9,19.513,19.513,0,0,0,4.161.047.855.855,0,0,1,.821,1.285.849.849,0,0,1-.644.416,19.579,19.579,0,0,1-3.289.054,30,30,0,0,1-4.132-.557A38.8,38.8,0,0,1,9.322,25.2c-.409-.134-.821-.264-1.219-.431a5.1,5.1,0,0,0-1.95-.391,1.205,1.205,0,0,0-.9.358,1.74,1.74,0,0,0-.3,1A3.12,3.12,0,0,0,5.4,27.509a6.027,6.027,0,0,0,1.9,1.9,12.348,12.348,0,0,0,2.772,1.346,18.982,18.982,0,0,0,6.148,1H28.859c0-2.225,0-4.447,0-6.673a2.819,2.819,0,0,0-.593-.373,9.8,9.8,0,0,0-2.49-.774,21.465,21.465,0,0,0-3.506-.333,37.535,37.535,0,0,0-4.078.148Z"/><path class="c" d="M16.91,2.671A13.65,13.65,0,0,1,31.156,21.433,2.471,2.471,0,0,1,33.8,23.818v8.261a2.45,2.45,0,0,1-.474,1.386,2.476,2.476,0,0,1-4.013-.018q-6.394-.005-12.792,0A20.267,20.267,0,0,1,8.75,32.061,12.745,12.745,0,0,1,6.007,30.57a7.707,7.707,0,0,1-1.882-1.9,5.264,5.264,0,0,1-.731-1.625,4.779,4.779,0,0,1-.083-1.882A3.216,3.216,0,0,1,3.825,23.8a2.562,2.562,0,0,1,1.393-.992,3.964,3.964,0,0,1,1.288-.145A13.644,13.644,0,0,1,11.04,4.827,13.421,13.421,0,0,1,16.91,2.671m-2.363,6.5a.859.859,0,0,0,.018.955,5.159,5.159,0,0,0,.362.384c.829.825,1.654,1.657,2.486,2.482-1.093,0-2.182,0-3.275,0a.83.83,0,0,0-.651.311.856.856,0,0,0,.651,1.4h3.553v1.469H14.323a1.129,1.129,0,0,0-.557.094.855.855,0,0,0,.322,1.614h3.6V20.6a.854.854,0,0,0,1.69.177,1.661,1.661,0,0,0,.018-.329v-2.58h3.575a.846.846,0,0,0,.713-.431.873.873,0,0,0-.018-.872.854.854,0,0,0-.47-.362,1.42,1.42,0,0,0-.463-.04H19.4V14.7h3.543a.855.855,0,0,0,.72-1.317.85.85,0,0,0-.691-.391h-3.3q1.384-1.379,2.765-2.761a.855.855,0,0,0-.934-1.386,1.139,1.139,0,0,0-.423.329q-1.265,1.265-2.533,2.533l-2.66-2.66A.854.854,0,0,0,15.43,8.8a.844.844,0,0,0-.883.365m3.644,14.579a2.659,2.659,0,0,0-1.017.337,1.684,1.684,0,0,0-.774.9,19.477,19.477,0,0,0,4.158.047.853.853,0,0,1,.821,1.281.849.849,0,0,1-.644.416,19.529,19.529,0,0,1-3.286.054,29.945,29.945,0,0,1-4.129-.557,38.728,38.728,0,0,1-3.98-1.035c-.409-.134-.821-.264-1.216-.431a5.164,5.164,0,0,0-1.947-.391,1.211,1.211,0,0,0-.9.358,1.74,1.74,0,0,0-.3,1A3.12,3.12,0,0,0,5.421,27.5a6,6,0,0,0,1.9,1.9,12.335,12.335,0,0,0,2.772,1.343,18.961,18.961,0,0,0,6.144,1H28.866c0-2.222,0-4.444,0-6.666a2.729,2.729,0,0,0-.593-.373,9.773,9.773,0,0,0-2.486-.774,21.459,21.459,0,0,0-3.5-.333,36.613,36.613,0,0,0-4.089.152Z"/></g></g></svg>