<svg xmlns="http://www.w3.org/2000/svg" xmlns:xlink="http://www.w3.org/1999/xlink" width="32" height="32" viewBox="0 0 32 32"><defs><style>.a{stroke:#707070;}.a,.c{fill:url(#a);}.b{clip-path:url(#b);}</style><linearGradient id="a" x1="0.5" x2="0.5" y2="1" gradientUnits="objectBoundingBox"><stop offset="0" stop-color="#2290ff"/><stop offset="1" stop-color="#99c0fe"/></linearGradient><clipPath id="b"><rect class="a" width="32" height="32" transform="translate(43 315)"/></clipPath></defs><g class="b" transform="translate(-43 -315)"><g transform="translate(40.415 312.655)"><path class="c" d="M13.487,28.949H6.561a1.89,1.89,0,0,0,0,3.78H18.307a13.87,13.87,0,0,1-4.82-3.78ZM6.561,23.357a1.89,1.89,0,1,0,0,3.78h5.633a17.611,17.611,0,0,1-1.746-3.78Zm0-5.593a1.89,1.89,0,0,0,0,3.781h3.627V17.764Zm0-5.593a1.89,1.89,0,1,0,0,3.78h3.627v-3.78Z" transform="translate(0 -0.91)"/><path class="c" d="M22.471,4.163S18.958,8.382,11.65,8.382v12.9s1.926,9.108,10.821,11.247c8.895-2.139,10.821-11.247,10.821-11.247V8.381c-7.308,0-10.821-4.218-10.821-4.218Zm4.385,16.694a.773.773,0,1,1,0,1.546H23.493v2.035a1.023,1.023,0,0,1-2.046,0V22.4H18.086a.773.773,0,0,1,0-1.546h3.361V18.97H18.086a.773.773,0,1,1,0-1.546h2.749l-3.282-4.689A.986.986,0,1,1,19.233,11.7l3.147,4.642h.184L25.71,11.7a.986.986,0,1,1,1.681,1.033l-3.282,4.689h2.749a.773.773,0,1,1,0,1.546H23.493v1.887Z" transform="translate(-0.793)"/></g></g></svg>