<svg xmlns="http://www.w3.org/2000/svg" xmlns:xlink="http://www.w3.org/1999/xlink" width="32" height="32" viewBox="0 0 32 32"><defs><style>.a{fill:#fff;stroke:#707070;}.b{clip-path:url(#a);}.c{fill:#0091eb;}.d{fill:#bbe2ff;}.e{fill:#ffb541;}</style><clipPath id="a"><rect class="a" width="32" height="32" transform="translate(43 391)"/></clipPath></defs><g class="b" transform="translate(-43 -391)"><g transform="translate(36.987 386.408)"><path class="c" d="M35.83,5.086H8.216A2.184,2.184,0,0,0,6.033,7.269V24.237A2.184,2.184,0,0,0,8.216,26.42h3.151V20.983a4.271,4.271,0,0,1,4.263-4.263h2.142a4.273,4.273,0,0,1,3.562,1.936l5.189-5.148c.412-.453.782-.515.988-.309s.206.577-.185,1.03l-5.272,6.692v5.5H35.83a2.184,2.184,0,0,0,2.183-2.183V7.269A2.184,2.184,0,0,0,35.83,5.086ZM16.68,16.35a2.965,2.965,0,1,1,2.965-2.965v.021A2.949,2.949,0,0,1,16.68,16.35Z"/><path class="d" d="M9.575,28.685h1.771a3.564,3.564,0,0,1,3.562,3.562V36.1h-8.9V32.227a3.573,3.573,0,0,1,3.562-3.542Z"/><path class="e" d="M32.68,28.685H34.45a3.564,3.564,0,0,1,3.562,3.562V36.1h-8.9V32.227a3.573,3.573,0,0,1,3.562-3.542Z"/><path class="d" d="M21.107,28.685h1.771a3.564,3.564,0,0,1,3.562,3.562V36.1H17.565V32.227A3.542,3.542,0,0,1,21.107,28.685Z"/></g></g></svg>