<svg xmlns="http://www.w3.org/2000/svg" xmlns:xlink="http://www.w3.org/1999/xlink" width="32" height="32" viewBox="0 0 32 32"><defs><style>.a{fill:#fff;stroke:#707070;}.b{clip-path:url(#a);}.c{fill:#1d92ff;}.d{fill:#ff9e12;}</style><clipPath id="a"><rect class="a" width="32" height="32" transform="translate(172 315)"/></clipPath></defs><g class="b" transform="translate(-172 -315)"><g transform="translate(172 315.004)"><path class="c" d="M10.965,4.656A11.08,11.08,0,0,0,0,15.715,11.112,11.112,0,0,0,10.9,27.086,11.1,11.1,0,0,0,21.884,15.9,11.091,11.091,0,0,0,10.965,4.656Zm2.757,11.479h2.434v1.841h-3.5v1.077h3.5v1.841h-3.5v2.283H9.317V20.862H5.732V19.02H9.317V17.943H5.732V16.134H8.284l-2.9-5.384H9.08l1.884,4.2,1.852-4.2h3.758l-2.854,5.384Zm0,0"/><path class="d" d="M30.616,24.135H20.925A12.856,12.856,0,0,1,13.1,28.787H30.8a1.077,1.077,0,0,0,1.141-1.163V25.47c0-.958-.4-1.378-1.324-1.378v.043Zm.1-13.945h-8.1a13.48,13.48,0,0,1,1.2,4.652h6.978a1.077,1.077,0,0,0,1.2-1.217V11.472a1.077,1.077,0,0,0-1.228-1.249l-.043-.032Zm-9.53-2.326h5.039A1.077,1.077,0,0,0,27.4,6.659V4.44A1.077,1.077,0,0,0,26.18,3.213H14.734a12.6,12.6,0,0,1,5.384,3.338,13.928,13.928,0,0,1,1.077,1.314Zm8.485,12.846V18.245a1.077,1.077,0,0,0-1.077-1.077H23.746a13.588,13.588,0,0,1-1.357,4.662H28.6a1.077,1.077,0,0,0,1.077-1.077l-.011-.043Zm0,0"/></g></g></svg>