<svg xmlns="http://www.w3.org/2000/svg" xmlns:xlink="http://www.w3.org/1999/xlink" width="32" height="32" viewBox="0 0 32 32"><defs><style>.a,.d{fill:#fff;}.a{stroke:#707070;}.b{clip-path:url(#a);}.c{fill:#6499fe;}</style><clipPath id="a"><rect class="a" width="32" height="32" transform="translate(43 467)"/></clipPath></defs><g class="b" transform="translate(-43 -467)"><g transform="translate(43 467)"><path class="c" d="M16,16,0,16A16,16,0,1,0,16,0,16,16,0,0,0,0,16Z"/><path class="d" d="M9.48,17.774l7.506,4.334a1.4,1.4,0,0,0,.72.22,1.489,1.489,0,0,0,1.228-.72,1.4,1.4,0,0,0-.5-1.88,1.58,1.58,0,0,1-.648-1.154A1.454,1.454,0,0,1,18,17.78L12.88,14.816a1.7,1.7,0,0,1-.652.576,1.36,1.36,0,0,1-.578.144,1.22,1.22,0,0,1-.72-.218,1.392,1.392,0,0,0-.722-.216,1.489,1.489,0,0,0-1.228.72,1.4,1.4,0,0,0-.146,1.084,1.292,1.292,0,0,0,.648.868Zm11.19,5.612H7.68a.724.724,0,0,0,0,1.444H20.672a.723.723,0,0,0,.722-.72.682.682,0,0,0-.72-.724ZM20.462,7.44a3.6,3.6,0,0,0-5.35,3.69,3.376,3.376,0,0,1-1.406,3.34l4.044,2.338a3.4,3.4,0,0,1,2.19-2.89,3.6,3.6,0,0,0,.52-6.48Zm-.4,1.536a.42.42,0,0,1-.572.152,1.662,1.662,0,0,0-2.274.59.42.42,0,1,1-.724-.42A2.5,2.5,0,0,1,19.9,8.4a.42.42,0,0,1,.154.572Z"/></g></g></svg>