<svg xmlns="http://www.w3.org/2000/svg" xmlns:xlink="http://www.w3.org/1999/xlink" width="32" height="32" viewBox="0 0 32 32"><defs><style>.a{stroke:#707070;}.a,.c{fill:url(#a);}.b{clip-path:url(#b);}</style><linearGradient id="a" x1="0.5" x2="0.5" y2="1" gradientUnits="objectBoundingBox"><stop offset="0" stop-color="#8d7ce7"/><stop offset="1" stop-color="#a288f6"/></linearGradient><clipPath id="b"><rect class="a" width="32" height="32" transform="translate(300 315)"/></clipPath></defs><g class="b" transform="translate(-300 -315)"><path class="c" d="M17.319,25.83a8.737,8.737,0,0,1,1.27-4.556,1.512,1.512,0,0,1,.231-.91,7.747,7.747,0,0,0,1.5-3.076,4.422,4.422,0,0,0,1.5-2.735c.114-1.707-.345-1.707-.345-1.707.576-1.821.807-8.656-3.574-7.746-.69-1.483-5.3-2.621-7.493,1.252a8.276,8.276,0,0,0-.693,6.608c0,.114-.345-.114-.345.8a5.218,5.218,0,0,0,.807,2.962c.231.114.576.341.807.455a7.019,7.019,0,0,0,1.615,3.3,1.792,1.792,0,0,1-.921,1.938c-4.154.793-7.959,3.073-7.959,5.576v1.935c0,2.735,6.341,3.3,11.992,3.3a24.773,24.773,0,0,0,5.075-.455,8.59,8.59,0,0,1-3.46-6.946Zm8.649-7.177a7.177,7.177,0,1,0,7.266,7.177A7.192,7.192,0,0,0,25.968,18.653ZM30,23.778l-3.923,5.7c-.231.228-.462.455-.693.455a.83.83,0,0,1-.693-.341l-2.3-2.28a.684.684,0,0,1,0-.91l.576-.569a.707.707,0,0,1,.921,0l1.27,1.252,3-4.442a.759.759,0,0,1,.921-.228l.693.455a1.573,1.573,0,0,1,.345.455.661.661,0,0,1-.11.455Z" transform="translate(297.527 312.526)"/></g></svg>