<svg xmlns="http://www.w3.org/2000/svg" xmlns:xlink="http://www.w3.org/1999/xlink" width="32" height="32" viewBox="0 0 32 32"><defs><style>.a,.d{fill:#fff;}.a{stroke:#707070;}.b{clip-path:url(#a);}.c{fill:url(#b);}.e{fill:url(#c);}</style><clipPath id="a"><rect class="a" width="32" height="32" transform="translate(67 315)"/></clipPath><linearGradient id="b" x1="0.5" x2="0.5" y2="1" gradientUnits="objectBoundingBox"><stop offset="0" stop-color="#1a8dff"/><stop offset="1" stop-color="#a4c5fe"/></linearGradient><linearGradient id="c" x1="0.5" x2="0.5" y2="1" gradientUnits="objectBoundingBox"><stop offset="0" stop-color="#4da0ff"/><stop offset="1" stop-color="#8dbdf5"/></linearGradient></defs><g class="b" transform="translate(-67 -315)"><g transform="translate(67.765 315.765)"><path class="c" d="M30.471,16.188A14.284,14.284,0,0,1,16.188,30.471h-1.9A14.283,14.283,0,0,1,0,16.188v-1.9A14.284,14.284,0,0,1,14.283,0h1.9A14.284,14.284,0,0,1,30.471,14.283Z"/><path class="d" d="M15.538,26.853a1,1,0,0,1-.308-.054A13.715,13.715,0,0,1,6.4,13.753V8.863a.876.876,0,0,1,.617-.837,29.119,29.119,0,0,0,8.028-3.872.876.876,0,0,1,.991,0,29.117,29.117,0,0,0,8.029,3.87.869.869,0,0,1,.618.837v4.9a13.7,13.7,0,0,1-8.826,13.03.924.924,0,0,1-.319.062Z" transform="translate(-0.306 -0.191)"/><path class="e" d="M22.145,23.127l-2.252-2.259a4.969,4.969,0,1,0-1.074,1.075L21.065,24.2a.75.75,0,0,0,.543.223.756.756,0,0,0,.537-1.3Zm-6.254-1.75a3.414,3.414,0,1,1,2.424-1,3.417,3.417,0,0,1-2.424,1Z" transform="translate(-0.523 -0.621)"/></g></g></svg>