<svg xmlns="http://www.w3.org/2000/svg" xmlns:xlink="http://www.w3.org/1999/xlink" width="32" height="32" viewBox="0 0 32 32"><defs><style>.a{stroke:#707070;}.a,.c{fill:url(#a);}.b{clip-path:url(#b);}</style><linearGradient id="a" x1="0.5" x2="0.5" y2="1" gradientUnits="objectBoundingBox"><stop offset="0" stop-color="#ee8c1a"/><stop offset="1" stop-color="#f4bf76"/></linearGradient><clipPath id="b"><rect class="a" width="32" height="32" transform="translate(43 405)"/></clipPath></defs><g class="b" transform="translate(-43 -405)"><g transform="translate(42.023 404.021)"><path class="c" d="M27.829,20.59a10.438,10.438,0,0,0-4.007-2.111V6.492A1.132,1.132,0,0,0,23.5,5.7L19.22,1.319a.006.006,0,0,1-.006-.006.7.7,0,0,0-.125-.1c-.017-.011-.028-.028-.045-.04A1.041,1.041,0,0,0,18.637,1a.991.991,0,0,0-.226-.023H7.137a3.4,3.4,0,0,0-3.4,3.4V19.5a2.946,2.946,0,0,0-2.2,1.222,2.629,2.629,0,0,0-.175,2.485c.215.56.283.73,6.911,5.9.509.4,1.7,1.33,1.794,1.409.6.606.707.713,11.523.475l.645-.011c.209.13.651.441,1.4,1.024.94.724,1.251.968,1.856.968.753,0,.872-.113,3.933-3.079,1.381-1.336,2.79-2.722,2.937-2.869a1.585,1.585,0,0,0,.458-1.189c-.023-.764-.04-1.047-4.992-5.252ZM19.549,4.9l.741.758h-.741Zm-4.375,13.2a3.033,3.033,0,0,0-3.283,3.051,3.064,3.064,0,0,0,.94,2.117H11.093c-.294-.192-.917-.685-1.245-.945A17.009,17.009,0,0,0,6,19.8V4.381A1.135,1.135,0,0,1,7.131,3.249H17.279V6.786a1.135,1.135,0,0,0,1.132,1.132h3.147v10.2c-.175-.011-.345-.023-.521-.023H15.174Z"/><path class="c" d="M17.03,7.861a1.134,1.134,0,0,0-1.6,0L13.906,9.384,12.383,7.861a1.133,1.133,0,0,0-1.6,1.6l.781.781a1.132,1.132,0,0,0,.023,2.264H12.78v.345H11.585a1.132,1.132,0,1,0,0,2.264H12.78v1.166a1.132,1.132,0,1,0,2.264,0V15.111h1.189a1.132,1.132,0,0,0,0-2.264H15.044v-.34h1.189a1.132,1.132,0,0,0,.023-2.264l.781-.781a1.139,1.139,0,0,0-.006-1.6Z"/></g></g></svg>