<svg xmlns="http://www.w3.org/2000/svg" xmlns:xlink="http://www.w3.org/1999/xlink" width="32" height="32" viewBox="0 0 32 32"><defs><style>.a{stroke:#707070;}.a,.c{fill:url(#a);}.b{clip-path:url(#b);}</style><linearGradient id="a" x1="0.5" x2="0.5" y2="1" gradientUnits="objectBoundingBox"><stop offset="0" stop-color="#1f8fff"/><stop offset="1" stop-color="#9dc2fe"/></linearGradient><clipPath id="b"><rect class="a" width="32" height="32" transform="translate(300 405)"/></clipPath></defs><g class="b" transform="translate(-300 -405)"><path class="c" d="M17.143,1.143a16,16,0,1,0,16,16A16.047,16.047,0,0,0,17.143,1.143Zm8.571,19.086H12.229l2.743,1.886a1.171,1.171,0,0,1,.286,1.6,1.259,1.259,0,0,1-.914.514A.859.859,0,0,1,13.714,24L8,20a1.2,1.2,0,0,1-.457-1.257,1.168,1.168,0,0,1,1.086-.8H25.714a1.143,1.143,0,1,1,0,2.286ZM26.8,15.543a1.168,1.168,0,0,1-1.086.8H8.571a1.143,1.143,0,1,1,0-2.286H22.057l-2.743-1.886a1.171,1.171,0,0,1-.286-1.6,1.27,1.27,0,0,1,.743-.457,1.126,1.126,0,0,1,.857.171l5.714,4a1.2,1.2,0,0,1,.457,1.257Z" transform="translate(298.857 403.857)"/></g></svg>