<svg xmlns="http://www.w3.org/2000/svg" xmlns:xlink="http://www.w3.org/1999/xlink" width="32" height="32" viewBox="0 0 32 32"><defs><style>.a{stroke:#707070;}.a,.c{fill:url(#a);}.b{clip-path:url(#b);}</style><linearGradient id="a" x1="0.5" x2="0.5" y2="1" gradientUnits="objectBoundingBox"><stop offset="0" stop-color="#f09d3c"/><stop offset="1" stop-color="#f4c077"/></linearGradient><clipPath id="b"><rect class="a" width="32" height="32" transform="translate(172 315)"/></clipPath></defs><g class="b" transform="translate(-172 -315)"><path class="c" d="M25.818,2.043A3.27,3.27,0,0,0,22.664,0H4.566S.963.112.961,3.553V21.467a4.285,4.285,0,0,0,1.8,3.244v.347s0,.047.009.113H2.763l.011.016A3.728,3.728,0,0,0,6.518,28.8H24.41c3.1,0,3.623-3.74,3.623-3.742V5.348S27.841,2.844,25.818,2.043ZM18.063,4.178a1.167,1.167,0,0,1,1.647,0l1.647,1.647a1.167,1.167,0,0,1,0,1.647L20.3,8.527,17.008,5.233ZM8,14.24l7.7-7.7,3.294,3.294-7.7,7.7-4.734,1.44ZM26.192,26.968H4.566v-1.8H24.39V3.629h1.8Z" transform="translate(173.503 316.6)"/></g></svg>