<svg xmlns="http://www.w3.org/2000/svg" xmlns:xlink="http://www.w3.org/1999/xlink" width="32" height="32" viewBox="0 0 32 32"><defs><style>.a{stroke:#707070;}.a,.c{fill:url(#a);}.b{clip-path:url(#b);}</style><linearGradient id="a" x1="0.5" x2="0.5" y2="1" gradientUnits="objectBoundingBox"><stop offset="0" stop-color="#806bec"/><stop offset="1" stop-color="#b49efe"/></linearGradient><clipPath id="b"><rect class="a" width="32" height="32" transform="translate(172 405)"/></clipPath></defs><g class="b" transform="translate(-172 -405)"><path class="c" d="M30.268,34.3h-24a2.286,2.286,0,0,1-2.286-2.286V30.946H5.7a3.429,3.429,0,0,0,0-6.857H3.982V21.8H5.7a3.429,3.429,0,1,0,0-6.857H3.982V12.661H5.7A3.429,3.429,0,0,0,5.7,5.8H3.982V4.589A2.286,2.286,0,0,1,6.268,2.3h24a2.286,2.286,0,0,1,2.286,2.286V32.018A2.286,2.286,0,0,1,30.268,34.3Zm-.587-6.845a11.157,11.157,0,0,0-6.757-4.214.652.652,0,0,1-.523-.639V21.371a.649.649,0,0,1,.379-.592c2.176-.99,3.265-3.7,3.265-6.887,0-4.026,0-7.289-5.206-7.289s-5.206,3.263-5.206,7.289c0,3.188,1.088,5.9,3.265,6.887a.649.649,0,0,1,.379.592v1.235a.652.652,0,0,1-.523.639A11.157,11.157,0,0,0,12,27.459a1.633,1.633,0,0,0,1.335,2.573H28.346A1.633,1.633,0,0,0,29.681,27.459ZM6.839,9.232A1.143,1.143,0,0,1,5.7,10.375H3.982V8.089H5.7A1.143,1.143,0,0,1,6.839,9.232Zm0,9.143A1.143,1.143,0,0,1,5.7,19.518H3.982V17.232H5.7A1.143,1.143,0,0,1,6.839,18.375Zm0,9.143A1.143,1.143,0,0,1,5.7,28.661H3.982V26.375H5.7A1.143,1.143,0,0,1,6.839,27.518Z" transform="translate(169.732 402.696)"/></g></svg>