<svg xmlns="http://www.w3.org/2000/svg" xmlns:xlink="http://www.w3.org/1999/xlink" width="16" height="16" viewBox="0 0 16 16"><defs><style>.a,.c{fill:#999;}.a{stroke:#e19191;}.b{clip-path:url(#a);}</style><clipPath id="a"><rect class="a" width="16" height="16"/></clipPath></defs><g class="b"><g transform="translate(1.871)"><path class="c" d="M9.457,1.031A6.747,6.747,0,0,0,2.749,7.794a6.8,6.8,0,0,0,.715,2.694A21.438,21.438,0,0,0,5.5,13.622c.6.715,1.265,1.43,1.869,2.089l.6.6c.11.11.22.165.22.22h0a1.659,1.659,0,0,0,2.364,0l.22-.22.6-.6c.66-.66,1.265-1.375,1.869-2.089a13.746,13.746,0,0,0,2.034-3.134A5.987,5.987,0,0,0,16,7.794,6.507,6.507,0,0,0,9.457,1.031ZM14.68,10.1A13.905,13.905,0,0,1,12.7,13.072c-.6.715-1.21,1.43-1.814,2.034l-.6.6-.22.22a.863.863,0,0,1-1.21,0h0l-.22-.22-.6-.6c-.6-.66-1.265-1.32-1.814-2.034A19.855,19.855,0,0,1,4.234,10.1a5.316,5.316,0,0,1-.66-2.309,5.883,5.883,0,1,1,11.766,0A5.316,5.316,0,0,1,14.68,10.1Z" transform="translate(-2.749 -1.031)"/><path class="c" d="M10.405,5.636A2.911,2.911,0,0,0,7.491,8.6a2.915,2.915,0,1,0,5.828,0A2.911,2.911,0,0,0,10.405,5.636Zm0,5.058A2.1,2.1,0,0,1,8.316,8.55a2.09,2.09,0,1,1,4.179,0A2.1,2.1,0,0,1,10.405,10.694Z" transform="translate(-3.698 -1.952)"/></g></g></svg>